<mxfile host="65bd71144e">
    <diagram name="PÃ¡gina-1" id="h4F8JXKs_0zl05brKgDj">
        <mxGraphModel dx="1982" dy="1707" grid="0" gridSize="10" guides="1" tooltips="1" connect="1" arrows="1" fold="1" page="0" pageScale="1" pageWidth="827" pageHeight="1169" background="none" math="0" shadow="0">
            <root>
                <mxCell id="0"/>
                <mxCell id="1" parent="0"/>
                <mxCell id="KicttZeMoANfHWGI0RuL-31" value="CacheCapability&amp;lt;T&amp;gt;" style="swimlane;fontStyle=0;childLayout=stackLayout;horizontal=1;startSize=26;fillColor=#d80073;horizontalStack=0;resizeParent=1;resizeParentMax=0;resizeLast=0;collapsible=1;marginBottom=0;whiteSpace=wrap;html=1;strokeColor=#A50040;fontColor=#ffffff;" parent="1" vertex="1">
                    <mxGeometry x="420" y="166" width="370" height="156" as="geometry"/>
                </mxCell>
                <mxCell id="KicttZeMoANfHWGI0RuL-32" value="+ get_local_cache(&amp;amp;self) : &amp;amp;Cache&amp;lt;T&amp;gt;&amp;nbsp;" style="text;strokeColor=none;fillColor=none;align=left;verticalAlign=top;spacingLeft=4;spacingRight=4;overflow=hidden;rotatable=0;points=[[0,0.5],[1,0.5]];portConstraint=eastwest;whiteSpace=wrap;html=1;" parent="KicttZeMoANfHWGI0RuL-31" vertex="1">
                    <mxGeometry y="26" width="370" height="26" as="geometry"/>
                </mxCell>
                <mxCell id="KicttZeMoANfHWGI0RuL-33" value="+ get_local_mut_cache(&amp;amp;self) : &amp;amp;mut Cache&amp;lt;T&amp;gt;&amp;nbsp;" style="text;strokeColor=none;fillColor=none;align=left;verticalAlign=top;spacingLeft=4;spacingRight=4;overflow=hidden;rotatable=0;points=[[0,0.5],[1,0.5]];portConstraint=eastwest;whiteSpace=wrap;html=1;" parent="KicttZeMoANfHWGI0RuL-31" vertex="1">
                    <mxGeometry y="52" width="370" height="26" as="geometry"/>
                </mxCell>
                <mxCell id="KicttZeMoANfHWGI0RuL-35" value="+ read_from_cache(&amp;amp;self, key: &amp;amp;str) : Option&amp;lt;&amp;amp;T&amp;gt;&amp;nbsp;" style="text;strokeColor=none;fillColor=none;align=left;verticalAlign=top;spacingLeft=4;spacingRight=4;overflow=hidden;rotatable=0;points=[[0,0.5],[1,0.5]];portConstraint=eastwest;whiteSpace=wrap;html=1;" parent="KicttZeMoANfHWGI0RuL-31" vertex="1">
                    <mxGeometry y="78" width="370" height="26" as="geometry"/>
                </mxCell>
                <mxCell id="KicttZeMoANfHWGI0RuL-36" value="+ write_to_cache(&amp;amp;self, key: &amp;amp;str, data: T) : Result&amp;lt;&amp;amp;T, HttpError&amp;gt;&amp;nbsp;" style="text;strokeColor=none;fillColor=none;align=left;verticalAlign=top;spacingLeft=4;spacingRight=4;overflow=hidden;rotatable=0;points=[[0,0.5],[1,0.5]];portConstraint=eastwest;whiteSpace=wrap;html=1;" parent="KicttZeMoANfHWGI0RuL-31" vertex="1">
                    <mxGeometry y="104" width="370" height="26" as="geometry"/>
                </mxCell>
                <mxCell id="KicttZeMoANfHWGI0RuL-45" value="+ delete_from_cache(&amp;amp;self, key: &amp;amp;str) : Result&amp;lt;(), HttpError&amp;gt;&amp;nbsp;" style="text;strokeColor=none;fillColor=none;align=left;verticalAlign=top;spacingLeft=4;spacingRight=4;overflow=hidden;rotatable=0;points=[[0,0.5],[1,0.5]];portConstraint=eastwest;whiteSpace=wrap;html=1;" parent="KicttZeMoANfHWGI0RuL-31" vertex="1">
                    <mxGeometry y="130" width="370" height="26" as="geometry"/>
                </mxCell>
                <mxCell id="KicttZeMoANfHWGI0RuL-34" value="Use" style="endArrow=open;endSize=12;dashed=1;html=1;rounded=0;" parent="1" source="KicttZeMoANfHWGI0RuL-31" target="KicttZeMoANfHWGI0RuL-10" edge="1">
                    <mxGeometry width="160" relative="1" as="geometry">
                        <mxPoint x="561" y="91" as="sourcePoint"/>
                        <mxPoint x="505" y="91" as="targetPoint"/>
                    </mxGeometry>
                </mxCell>
                <mxCell id="KicttZeMoANfHWGI0RuL-59" value="" style="endArrow=block;dashed=1;endFill=0;endSize=12;html=1;rounded=0;" parent="1" source="KicttZeMoANfHWGI0RuL-31" target="KicttZeMoANfHWGI0RuL-63" edge="1">
                    <mxGeometry width="160" relative="1" as="geometry">
                        <mxPoint x="615" y="390" as="sourcePoint"/>
                        <mxPoint x="615" y="328" as="targetPoint"/>
                    </mxGeometry>
                </mxCell>
                <mxCell id="KicttZeMoANfHWGI0RuL-60" value="&amp;lt;&amp;lt;HttpContext&amp;gt;&amp;gt;" style="swimlane;fontStyle=0;childLayout=stackLayout;horizontal=1;startSize=26;fillColor=#0050ef;horizontalStack=0;resizeParent=1;resizeParentMax=0;resizeLast=0;collapsible=1;marginBottom=0;whiteSpace=wrap;html=1;strokeColor=#001DBC;fontColor=#ffffff;" parent="1" vertex="1">
                    <mxGeometry x="955" y="-93" width="265" height="52" as="geometry"/>
                </mxCell>
                <mxCell id="KicttZeMoANfHWGI0RuL-149" value="+ send_http_message(...)" style="text;strokeColor=none;fillColor=none;align=left;verticalAlign=top;spacingLeft=4;spacingRight=4;overflow=hidden;rotatable=0;points=[[0,0.5],[1,0.5]];portConstraint=eastwest;whiteSpace=wrap;html=1;" parent="KicttZeMoANfHWGI0RuL-60" vertex="1">
                    <mxGeometry y="26" width="265" height="26" as="geometry"/>
                </mxCell>
                <mxCell id="KicttZeMoANfHWGI0RuL-62" value="Use" style="endArrow=open;endSize=12;dashed=1;html=1;rounded=0;" parent="1" source="KicttZeMoANfHWGI0RuL-52" target="KicttZeMoANfHWGI0RuL-60" edge="1">
                    <mxGeometry width="160" relative="1" as="geometry">
                        <mxPoint x="615" y="450" as="sourcePoint"/>
                        <mxPoint x="615" y="380" as="targetPoint"/>
                    </mxGeometry>
                </mxCell>
                <mxCell id="KicttZeMoANfHWGI0RuL-63" value="&amp;lt;&amp;lt;Context&amp;gt;&amp;gt;" style="swimlane;fontStyle=0;childLayout=stackLayout;horizontal=1;startSize=26;fillColor=#0050ef;horizontalStack=0;resizeParent=1;resizeParentMax=0;resizeLast=0;collapsible=1;marginBottom=0;whiteSpace=wrap;html=1;strokeColor=#001DBC;fontColor=#ffffff;" parent="1" vertex="1">
                    <mxGeometry x="530" y="-119" width="155" height="104" as="geometry"/>
                </mxCell>
                <mxCell id="KicttZeMoANfHWGI0RuL-65" value="+ get_shared_data(...)" style="text;strokeColor=none;fillColor=none;align=left;verticalAlign=top;spacingLeft=4;spacingRight=4;overflow=hidden;rotatable=0;points=[[0,0.5],[1,0.5]];portConstraint=eastwest;whiteSpace=wrap;html=1;" parent="KicttZeMoANfHWGI0RuL-63" vertex="1">
                    <mxGeometry y="26" width="155" height="26" as="geometry"/>
                </mxCell>
                <mxCell id="KicttZeMoANfHWGI0RuL-66" value="+ set_shared_data(...)" style="text;strokeColor=none;fillColor=none;align=left;verticalAlign=top;spacingLeft=4;spacingRight=4;overflow=hidden;rotatable=0;points=[[0,0.5],[1,0.5]];portConstraint=eastwest;whiteSpace=wrap;html=1;" parent="KicttZeMoANfHWGI0RuL-63" vertex="1">
                    <mxGeometry y="52" width="155" height="26" as="geometry"/>
                </mxCell>
                <mxCell id="KicttZeMoANfHWGI0RuL-67" value="..." style="text;strokeColor=none;fillColor=none;align=left;verticalAlign=top;spacingLeft=4;spacingRight=4;overflow=hidden;rotatable=0;points=[[0,0.5],[1,0.5]];portConstraint=eastwest;whiteSpace=wrap;html=1;" parent="KicttZeMoANfHWGI0RuL-63" vertex="1">
                    <mxGeometry y="78" width="155" height="26" as="geometry"/>
                </mxCell>
                <mxCell id="KicttZeMoANfHWGI0RuL-68" value="" style="endArrow=block;dashed=1;endFill=0;endSize=12;html=1;rounded=0;" parent="1" source="KicttZeMoANfHWGI0RuL-60" target="KicttZeMoANfHWGI0RuL-63" edge="1">
                    <mxGeometry width="160" relative="1" as="geometry">
                        <mxPoint x="615" y="123" as="sourcePoint"/>
                        <mxPoint x="615" y="75" as="targetPoint"/>
                    </mxGeometry>
                </mxCell>
                <mxCell id="KicttZeMoANfHWGI0RuL-78" value="Use" style="endArrow=open;endSize=12;dashed=1;html=1;rounded=0;edgeStyle=entityRelationEdgeStyle;" parent="1" source="KicttZeMoANfHWGI0RuL-31" target="KicttZeMoANfHWGI0RuL-47" edge="1">
                    <mxGeometry width="160" relative="1" as="geometry">
                        <mxPoint x="1068" y="225" as="sourcePoint"/>
                        <mxPoint x="1021" y="270" as="targetPoint"/>
                    </mxGeometry>
                </mxCell>
                <mxCell id="KicttZeMoANfHWGI0RuL-79" value="Cache" style="swimlane;horizontal=0;whiteSpace=wrap;html=1;" parent="1" vertex="1">
                    <mxGeometry x="-15" y="138" width="823" height="381" as="geometry"/>
                </mxCell>
                <mxCell id="KicttZeMoANfHWGI0RuL-88" value="" style="endArrow=block;dashed=1;endFill=0;endSize=12;html=1;rounded=0;edgeStyle=orthogonalEdgeStyle;startArrow=none;" parent="1" source="KicttZeMoANfHWGI0RuL-80" target="KicttZeMoANfHWGI0RuL-31" edge="1">
                    <mxGeometry width="160" relative="1" as="geometry">
                        <mxPoint x="540" y="540" as="sourcePoint"/>
                        <mxPoint x="615" y="124" as="targetPoint"/>
                    </mxGeometry>
                </mxCell>
                <mxCell id="KicttZeMoANfHWGI0RuL-96" value="" style="endArrow=block;dashed=1;endFill=0;endSize=12;html=1;rounded=0;edgeStyle=entityRelationEdgeStyle;" parent="1" source="KicttZeMoANfHWGI0RuL-89" target="KicttZeMoANfHWGI0RuL-52" edge="1">
                    <mxGeometry width="160" relative="1" as="geometry">
                        <mxPoint x="615" y="176" as="sourcePoint"/>
                        <mxPoint x="615" y="124" as="targetPoint"/>
                    </mxGeometry>
                </mxCell>
                <mxCell id="KicttZeMoANfHWGI0RuL-147" value="Error" style="swimlane;horizontal=0;whiteSpace=wrap;html=1;" parent="1" vertex="1">
                    <mxGeometry x="910" y="138" width="340" height="250" as="geometry"/>
                </mxCell>
                <mxCell id="KicttZeMoANfHWGI0RuL-52" value="ExpandedHttpContext" style="swimlane;fontStyle=0;childLayout=stackLayout;horizontal=1;startSize=26;fillColor=#d80073;horizontalStack=0;resizeParent=1;resizeParentMax=0;resizeLast=0;collapsible=1;marginBottom=0;whiteSpace=wrap;html=1;fontColor=#ffffff;strokeColor=#A50040;" parent="KicttZeMoANfHWGI0RuL-147" vertex="1">
                    <mxGeometry x="40" y="40" width="270" height="52" as="geometry"/>
                </mxCell>
                <mxCell id="KicttZeMoANfHWGI0RuL-53" value="+ send_http_error(&amp;amp;self, http_error: HttpError)" style="text;strokeColor=none;fillColor=none;align=left;verticalAlign=top;spacingLeft=4;spacingRight=4;overflow=hidden;rotatable=0;points=[[0,0.5],[1,0.5]];portConstraint=eastwest;whiteSpace=wrap;html=1;" parent="KicttZeMoANfHWGI0RuL-52" vertex="1">
                    <mxGeometry y="26" width="270" height="26" as="geometry"/>
                </mxCell>
                <mxCell id="KicttZeMoANfHWGI0RuL-47" value="HttpError" style="swimlane;fontStyle=0;childLayout=stackLayout;horizontal=1;startSize=26;fillColor=none;horizontalStack=0;resizeParent=1;resizeParentMax=0;resizeLast=0;collapsible=1;marginBottom=0;whiteSpace=wrap;html=1;" parent="KicttZeMoANfHWGI0RuL-147" vertex="1">
                    <mxGeometry x="105" y="143" width="140" height="78" as="geometry"/>
                </mxCell>
                <mxCell id="KicttZeMoANfHWGI0RuL-48" value="+ status: u32" style="text;strokeColor=none;fillColor=none;align=left;verticalAlign=top;spacingLeft=4;spacingRight=4;overflow=hidden;rotatable=0;points=[[0,0.5],[1,0.5]];portConstraint=eastwest;whiteSpace=wrap;html=1;" parent="KicttZeMoANfHWGI0RuL-47" vertex="1">
                    <mxGeometry y="26" width="140" height="26" as="geometry"/>
                </mxCell>
                <mxCell id="KicttZeMoANfHWGI0RuL-49" value="+ error_message: String" style="text;strokeColor=none;fillColor=none;align=left;verticalAlign=top;spacingLeft=4;spacingRight=4;overflow=hidden;rotatable=0;points=[[0,0.5],[1,0.5]];portConstraint=eastwest;whiteSpace=wrap;html=1;" parent="KicttZeMoANfHWGI0RuL-47" vertex="1">
                    <mxGeometry y="52" width="140" height="26" as="geometry"/>
                </mxCell>
                <mxCell id="KicttZeMoANfHWGI0RuL-58" value="Use" style="endArrow=open;endSize=12;dashed=1;html=1;rounded=0;" parent="KicttZeMoANfHWGI0RuL-147" source="KicttZeMoANfHWGI0RuL-52" target="KicttZeMoANfHWGI0RuL-47" edge="1">
                    <mxGeometry width="160" relative="1" as="geometry">
                        <mxPoint x="-687" y="-3" as="sourcePoint"/>
                        <mxPoint x="-547" y="-3" as="targetPoint"/>
                    </mxGeometry>
                </mxCell>
                <mxCell id="KicttZeMoANfHWGI0RuL-170" value="" style="endArrow=block;dashed=1;endFill=0;endSize=12;html=1;rounded=0;edgeStyle=entityRelationEdgeStyle;" parent="1" source="KicttZeMoANfHWGI0RuL-162" target="KicttZeMoANfHWGI0RuL-60" edge="1">
                    <mxGeometry width="160" relative="1" as="geometry">
                        <mxPoint x="616" y="176" as="sourcePoint"/>
                        <mxPoint x="617" y="44" as="targetPoint"/>
                    </mxGeometry>
                </mxCell>
                <mxCell id="KicttZeMoANfHWGI0RuL-176" value="Auth" style="swimlane;horizontal=0;whiteSpace=wrap;html=1;" parent="1" vertex="1">
                    <mxGeometry x="1330" y="138" width="1172" height="1002" as="geometry"/>
                </mxCell>
                <mxCell id="KicttZeMoANfHWGI0RuL-119" value="JWT" style="swimlane;horizontal=0;whiteSpace=wrap;html=1;" parent="KicttZeMoANfHWGI0RuL-176" vertex="1">
                    <mxGeometry x="60" y="29" width="1054" height="491" as="geometry"/>
                </mxCell>
                <mxCell id="KicttZeMoANfHWGI0RuL-89" value="&lt;div style=&quot;font-family: Consolas, &amp;quot;Courier New&amp;quot;, monospace; font-size: 14px; line-height: 19px;&quot;&gt;&lt;span style=&quot;&quot;&gt;JWTHttpCapability&lt;/span&gt;&lt;/div&gt;" style="swimlane;fontStyle=0;childLayout=stackLayout;horizontal=1;startSize=26;fillColor=#d80073;horizontalStack=0;resizeParent=1;resizeParentMax=0;resizeLast=0;collapsible=1;marginBottom=0;whiteSpace=wrap;html=1;fontColor=default;strokeColor=#A50040;labelBackgroundColor=none;" parent="KicttZeMoANfHWGI0RuL-119" vertex="1">
                    <mxGeometry x="50" y="121" width="266" height="78" as="geometry"/>
                </mxCell>
                <mxCell id="KicttZeMoANfHWGI0RuL-90" value="+&amp;nbsp;&lt;span style=&quot;font-family: Consolas, &amp;quot;Courier New&amp;quot;, monospace; font-size: 11px; color: rgb(220, 220, 170);&quot;&gt;get_jwt&lt;/span&gt;&lt;span style=&quot;color: rgb(204, 204, 204); font-family: Consolas, &amp;quot;Courier New&amp;quot;, monospace; font-size: 11px;&quot;&gt;(&lt;/span&gt;&lt;span style=&quot;font-family: Consolas, &amp;quot;Courier New&amp;quot;, monospace; font-size: 11px; color: rgb(212, 212, 212);&quot;&gt;&amp;amp;&lt;/span&gt;&lt;span style=&quot;font-family: Consolas, &amp;quot;Courier New&amp;quot;, monospace; font-size: 11px; color: rgb(86, 156, 214);&quot;&gt;self&lt;/span&gt;&lt;span style=&quot;color: rgb(204, 204, 204); font-family: Consolas, &amp;quot;Courier New&amp;quot;, monospace; font-size: 11px;&quot;&gt;) &lt;/span&gt;&lt;span style=&quot;font-family: Consolas, &amp;quot;Courier New&amp;quot;, monospace; font-size: 11px; color: rgb(212, 212, 212);&quot;&gt;-&amp;gt;&lt;/span&gt;&lt;span style=&quot;color: rgb(204, 204, 204); font-family: Consolas, &amp;quot;Courier New&amp;quot;, monospace; font-size: 11px;&quot;&gt; &lt;/span&gt;&lt;span style=&quot;font-family: Consolas, &amp;quot;Courier New&amp;quot;, monospace; font-size: 11px; color: rgb(212, 212, 212);&quot;&gt;&amp;amp;&lt;/span&gt;&lt;span style=&quot;font-family: Consolas, &amp;quot;Courier New&amp;quot;, monospace; font-size: 11px; color: rgb(78, 201, 176);&quot;&gt;JWT&lt;/span&gt;" style="text;strokeColor=none;fillColor=none;align=left;verticalAlign=top;spacingLeft=4;spacingRight=4;overflow=hidden;rotatable=0;points=[[0,0.5],[1,0.5]];portConstraint=eastwest;whiteSpace=wrap;html=1;fontSize=11;labelBackgroundColor=none;" parent="KicttZeMoANfHWGI0RuL-89" vertex="1">
                    <mxGeometry y="26" width="266" height="26" as="geometry"/>
                </mxCell>
                <mxCell id="KicttZeMoANfHWGI0RuL-91" value="+&amp;nbsp;&lt;span style=&quot;font-family: Consolas, &amp;quot;Courier New&amp;quot;, monospace; font-size: 11px; color: rgb(220, 220, 170); text-decoration-line: underline;&quot;&gt;get_mut_jwt&lt;/span&gt;&lt;span style=&quot;color: rgb(204, 204, 204); font-family: Consolas, &amp;quot;Courier New&amp;quot;, monospace; font-size: 11px;&quot;&gt;(&lt;/span&gt;&lt;span style=&quot;font-family: Consolas, &amp;quot;Courier New&amp;quot;, monospace; font-size: 11px; color: rgb(212, 212, 212);&quot;&gt;&amp;amp;&lt;/span&gt;&lt;span style=&quot;font-family: Consolas, &amp;quot;Courier New&amp;quot;, monospace; font-size: 11px; color: rgb(86, 156, 214);&quot;&gt;mut&lt;/span&gt;&lt;span style=&quot;color: rgb(204, 204, 204); font-family: Consolas, &amp;quot;Courier New&amp;quot;, monospace; font-size: 11px;&quot;&gt; &lt;/span&gt;&lt;span style=&quot;font-family: Consolas, &amp;quot;Courier New&amp;quot;, monospace; font-size: 11px; color: rgb(86, 156, 214); text-decoration-line: underline;&quot;&gt;self&lt;/span&gt;&lt;span style=&quot;color: rgb(204, 204, 204); font-family: Consolas, &amp;quot;Courier New&amp;quot;, monospace; font-size: 11px;&quot;&gt;) &lt;/span&gt;&lt;span style=&quot;font-family: Consolas, &amp;quot;Courier New&amp;quot;, monospace; font-size: 11px; color: rgb(212, 212, 212);&quot;&gt;-&amp;gt;&lt;/span&gt;&lt;span style=&quot;color: rgb(204, 204, 204); font-family: Consolas, &amp;quot;Courier New&amp;quot;, monospace; font-size: 11px;&quot;&gt; &lt;/span&gt;&lt;span style=&quot;font-family: Consolas, &amp;quot;Courier New&amp;quot;, monospace; font-size: 11px; color: rgb(212, 212, 212);&quot;&gt;&amp;amp;&lt;/span&gt;&lt;span style=&quot;font-family: Consolas, &amp;quot;Courier New&amp;quot;, monospace; font-size: 11px; color: rgb(86, 156, 214);&quot;&gt;mut&lt;/span&gt;&lt;span style=&quot;color: rgb(204, 204, 204); font-family: Consolas, &amp;quot;Courier New&amp;quot;, monospace; font-size: 11px;&quot;&gt; &lt;/span&gt;&lt;span style=&quot;font-family: Consolas, &amp;quot;Courier New&amp;quot;, monospace; font-size: 11px; color: rgb(78, 201, 176);&quot;&gt;JWT&lt;/span&gt;" style="text;strokeColor=none;fillColor=none;align=left;verticalAlign=top;spacingLeft=4;spacingRight=4;overflow=hidden;rotatable=0;points=[[0,0.5],[1,0.5]];portConstraint=eastwest;whiteSpace=wrap;html=1;fontSize=11;labelBackgroundColor=none;" parent="KicttZeMoANfHWGI0RuL-89" vertex="1">
                    <mxGeometry y="52" width="266" height="26" as="geometry"/>
                </mxCell>
                <mxCell id="4" value="Core" style="swimlane;horizontal=0;html=1;" parent="1" vertex="1">
                    <mxGeometry x="-479" y="91" width="3513" height="1143.62" as="geometry"/>
                </mxCell>
                <mxCell id="KicttZeMoANfHWGI0RuL-104" value="Use" style="endArrow=open;endSize=12;dashed=1;html=1;rounded=0;" parent="4" source="KicttZeMoANfHWGI0RuL-93" target="KicttZeMoANfHWGI0RuL-99" edge="1">
                    <mxGeometry width="160" relative="1" as="geometry">
                        <mxPoint x="1541" y="141" as="sourcePoint"/>
                        <mxPoint x="1489" y="195" as="targetPoint"/>
                    </mxGeometry>
                </mxCell>
                <mxCell id="KicttZeMoANfHWGI0RuL-110" value="Use" style="endArrow=open;endSize=12;dashed=1;html=1;rounded=0;" parent="4" source="KicttZeMoANfHWGI0RuL-93" target="KicttZeMoANfHWGI0RuL-105" edge="1">
                    <mxGeometry width="160" relative="1" as="geometry">
                        <mxPoint x="1941" y="422" as="sourcePoint"/>
                        <mxPoint x="2051" y="412" as="targetPoint"/>
                    </mxGeometry>
                </mxCell>
                <mxCell id="KicttZeMoANfHWGI0RuL-169" value="Root" style="swimlane;horizontal=0;whiteSpace=wrap;html=1;" parent="4" vertex="1">
                    <mxGeometry x="3026" y="51" width="430" height="225" as="geometry"/>
                </mxCell>
                <mxCell id="KicttZeMoANfHWGI0RuL-162" value="HttpRootContext&amp;lt;T: Clone&amp;gt;" style="swimlane;fontStyle=0;childLayout=stackLayout;horizontal=1;startSize=26;fillColor=#d80073;horizontalStack=0;resizeParent=1;resizeParentMax=0;resizeLast=0;collapsible=1;marginBottom=0;whiteSpace=wrap;html=1;fontColor=#ffffff;strokeColor=#A50040;" parent="KicttZeMoANfHWGI0RuL-169" vertex="1">
                    <mxGeometry x="50" y="49" width="340" height="138" as="geometry"/>
                </mxCell>
                <mxCell id="KicttZeMoANfHWGI0RuL-163" value="+ policy_config: T" style="text;strokeColor=none;fillColor=none;align=left;verticalAlign=top;spacingLeft=4;spacingRight=4;overflow=hidden;rotatable=0;points=[[0,0.5],[1,0.5]];portConstraint=eastwest;whiteSpace=wrap;html=1;" parent="KicttZeMoANfHWGI0RuL-162" vertex="1">
                    <mxGeometry y="26" width="340" height="26" as="geometry"/>
                </mxCell>
                <mxCell id="KicttZeMoANfHWGI0RuL-164" value="+ fn_serialize: fn(&amp;amp;[u8]) : T" style="text;strokeColor=none;fillColor=none;align=left;verticalAlign=top;spacingLeft=4;spacingRight=4;overflow=hidden;rotatable=0;points=[[0,0.5],[1,0.5]];portConstraint=eastwest;whiteSpace=wrap;html=1;" parent="KicttZeMoANfHWGI0RuL-162" vertex="1">
                    <mxGeometry y="52" width="340" height="26" as="geometry"/>
                </mxCell>
                <mxCell id="KicttZeMoANfHWGI0RuL-165" value="+ fn_create_http_context: fn(T) : Box&amp;lt;dyn HttpContext&amp;gt;" style="text;strokeColor=none;fillColor=none;align=left;verticalAlign=top;spacingLeft=4;spacingRight=4;overflow=hidden;rotatable=0;points=[[0,0.5],[1,0.5]];portConstraint=eastwest;whiteSpace=wrap;html=1;" parent="KicttZeMoANfHWGI0RuL-162" vertex="1">
                    <mxGeometry y="78" width="340" height="26" as="geometry"/>
                </mxCell>
                <mxCell id="KicttZeMoANfHWGI0RuL-167" value="" style="line;strokeWidth=1;fillColor=none;align=left;verticalAlign=middle;spacingTop=-1;spacingLeft=3;spacingRight=3;rotatable=0;labelPosition=right;points=[];portConstraint=eastwest;strokeColor=inherit;" parent="KicttZeMoANfHWGI0RuL-162" vertex="1">
                    <mxGeometry y="104" width="340" height="8" as="geometry"/>
                </mxCell>
                <mxCell id="KicttZeMoANfHWGI0RuL-166" value="+ new(T,&amp;nbsp;&amp;nbsp;fn(&amp;amp;[u8]) : T, fn(T) : Box&amp;lt;dyn HttpContext&amp;gt;) : Self" style="text;strokeColor=none;fillColor=none;align=left;verticalAlign=top;spacingLeft=4;spacingRight=4;overflow=hidden;rotatable=0;points=[[0,0.5],[1,0.5]];portConstraint=eastwest;whiteSpace=wrap;html=1;" parent="KicttZeMoANfHWGI0RuL-162" vertex="1">
                    <mxGeometry y="112" width="340" height="26" as="geometry"/>
                </mxCell>
                <mxCell id="KicttZeMoANfHWGI0RuL-10" value="&lt;div style=&quot;color: rgb(204, 204, 204); background-color: rgb(31, 31, 31); font-family: Consolas, &amp;quot;Courier New&amp;quot;, monospace; font-size: 14px; line-height: 19px;&quot;&gt;&lt;span style=&quot;color: #4ec9b0;&quot;&gt;Cache&lt;/span&gt;&amp;lt;&lt;span style=&quot;color: #4ec9b0;&quot;&gt;T&lt;/span&gt;&amp;gt;&lt;/div&gt;" style="swimlane;fontStyle=0;childLayout=stackLayout;horizontal=1;startSize=26;fillColor=none;horizontalStack=0;resizeParent=1;resizeParentMax=0;resizeLast=0;collapsible=1;marginBottom=0;whiteSpace=wrap;html=1;" parent="4" vertex="1">
                    <mxGeometry x="521" y="88" width="313" height="86" as="geometry"/>
                </mxCell>
                <mxCell id="KicttZeMoANfHWGI0RuL-11" value="-&amp;nbsp;&lt;span style=&quot;font-family: Consolas, &amp;quot;Courier New&amp;quot;, monospace; font-size: 11px; color: rgb(156, 220, 254);&quot;&gt;entries&lt;/span&gt;&lt;span style=&quot;font-family: Consolas, &amp;quot;Courier New&amp;quot;, monospace; font-size: 11px; color: rgb(212, 212, 212);&quot;&gt;:&lt;/span&gt;&lt;span style=&quot;background-color: rgb(31, 31, 31); color: rgb(204, 204, 204); font-family: Consolas, &amp;quot;Courier New&amp;quot;, monospace; font-size: 11px;&quot;&gt; &lt;/span&gt;&lt;span style=&quot;font-family: Consolas, &amp;quot;Courier New&amp;quot;, monospace; font-size: 11px; color: rgb(78, 201, 176);&quot;&gt;HashMap&lt;/span&gt;&lt;span style=&quot;background-color: rgb(31, 31, 31); color: rgb(204, 204, 204); font-family: Consolas, &amp;quot;Courier New&amp;quot;, monospace; font-size: 11px;&quot;&gt;&amp;lt;&lt;/span&gt;&lt;span style=&quot;font-family: Consolas, &amp;quot;Courier New&amp;quot;, monospace; font-size: 11px; color: rgb(78, 201, 176);&quot;&gt;String&lt;/span&gt;&lt;span style=&quot;background-color: rgb(31, 31, 31); color: rgb(204, 204, 204); font-family: Consolas, &amp;quot;Courier New&amp;quot;, monospace; font-size: 11px;&quot;&gt;, &lt;/span&gt;&lt;span style=&quot;font-family: Consolas, &amp;quot;Courier New&amp;quot;, monospace; font-size: 11px; color: rgb(78, 201, 176);&quot;&gt;Entry&lt;/span&gt;&lt;span style=&quot;background-color: rgb(31, 31, 31); color: rgb(204, 204, 204); font-family: Consolas, &amp;quot;Courier New&amp;quot;, monospace; font-size: 11px;&quot;&gt;&amp;lt;&lt;/span&gt;&lt;span style=&quot;font-family: Consolas, &amp;quot;Courier New&amp;quot;, monospace; font-size: 11px; color: rgb(78, 201, 176);&quot;&gt;T&lt;/span&gt;&lt;span style=&quot;background-color: rgb(31, 31, 31); color: rgb(204, 204, 204); font-family: Consolas, &amp;quot;Courier New&amp;quot;, monospace; font-size: 11px;&quot;&gt;&amp;gt;&amp;gt;&lt;/span&gt;" style="text;strokeColor=none;fillColor=none;align=left;verticalAlign=top;spacingLeft=4;spacingRight=4;overflow=hidden;rotatable=0;points=[[0,0.5],[1,0.5]];portConstraint=eastwest;whiteSpace=wrap;html=1;fontSize=11;" parent="KicttZeMoANfHWGI0RuL-10" vertex="1">
                    <mxGeometry y="26" width="313" height="26" as="geometry"/>
                </mxCell>
                <mxCell id="34" value="" style="line;strokeWidth=1;fillColor=none;align=left;verticalAlign=middle;spacingTop=-1;spacingLeft=3;spacingRight=3;rotatable=0;labelPosition=right;points=[];portConstraint=eastwest;strokeColor=inherit;" vertex="1" parent="KicttZeMoANfHWGI0RuL-10">
                    <mxGeometry y="52" width="313" height="8" as="geometry"/>
                </mxCell>
                <mxCell id="35" value="-&amp;nbsp;&lt;span style=&quot;font-family: Consolas, &amp;quot;Courier New&amp;quot;, monospace; font-size: 11px; color: rgb(220, 220, 170);&quot;&gt;get_entry&lt;/span&gt;&lt;span style=&quot;background-color: rgb(31, 31, 31); color: rgb(204, 204, 204); font-family: Consolas, &amp;quot;Courier New&amp;quot;, monospace; font-size: 11px;&quot;&gt;(&lt;/span&gt;&lt;span style=&quot;font-family: Consolas, &amp;quot;Courier New&amp;quot;, monospace; font-size: 11px; color: rgb(212, 212, 212);&quot;&gt;&amp;amp;&lt;/span&gt;&lt;span style=&quot;font-family: Consolas, &amp;quot;Courier New&amp;quot;, monospace; font-size: 11px; color: rgb(86, 156, 214);&quot;&gt;self&lt;/span&gt;&lt;span style=&quot;background-color: rgb(31, 31, 31); color: rgb(204, 204, 204); font-family: Consolas, &amp;quot;Courier New&amp;quot;, monospace; font-size: 11px;&quot;&gt;, &lt;/span&gt;&lt;span style=&quot;font-family: Consolas, &amp;quot;Courier New&amp;quot;, monospace; font-size: 11px; color: rgb(156, 220, 254);&quot;&gt;key&lt;/span&gt;&lt;span style=&quot;font-family: Consolas, &amp;quot;Courier New&amp;quot;, monospace; font-size: 11px; color: rgb(212, 212, 212);&quot;&gt;:&lt;/span&gt;&lt;span style=&quot;background-color: rgb(31, 31, 31); color: rgb(204, 204, 204); font-family: Consolas, &amp;quot;Courier New&amp;quot;, monospace; font-size: 11px;&quot;&gt; &lt;/span&gt;&lt;span style=&quot;font-family: Consolas, &amp;quot;Courier New&amp;quot;, monospace; font-size: 11px; color: rgb(212, 212, 212);&quot;&gt;&amp;amp;&lt;/span&gt;&lt;span style=&quot;font-family: Consolas, &amp;quot;Courier New&amp;quot;, monospace; font-size: 11px; color: rgb(78, 201, 176);&quot;&gt;str&lt;/span&gt;&lt;span style=&quot;background-color: rgb(31, 31, 31); color: rgb(204, 204, 204); font-family: Consolas, &amp;quot;Courier New&amp;quot;, monospace; font-size: 11px;&quot;&gt;) &lt;/span&gt;&lt;span style=&quot;font-family: Consolas, &amp;quot;Courier New&amp;quot;, monospace; font-size: 11px; color: rgb(212, 212, 212);&quot;&gt;-&amp;gt;&lt;/span&gt;&lt;span style=&quot;background-color: rgb(31, 31, 31); color: rgb(204, 204, 204); font-family: Consolas, &amp;quot;Courier New&amp;quot;, monospace; font-size: 11px;&quot;&gt; &lt;/span&gt;&lt;span style=&quot;font-family: Consolas, &amp;quot;Courier New&amp;quot;, monospace; font-size: 11px; color: rgb(78, 201, 176);&quot;&gt;Option&lt;/span&gt;&lt;span style=&quot;background-color: rgb(31, 31, 31); color: rgb(204, 204, 204); font-family: Consolas, &amp;quot;Courier New&amp;quot;, monospace; font-size: 11px;&quot;&gt;&amp;lt;&lt;/span&gt;&lt;span style=&quot;font-family: Consolas, &amp;quot;Courier New&amp;quot;, monospace; font-size: 11px; color: rgb(212, 212, 212);&quot;&gt;&amp;amp;&lt;/span&gt;&lt;span style=&quot;font-family: Consolas, &amp;quot;Courier New&amp;quot;, monospace; font-size: 11px; color: rgb(78, 201, 176);&quot;&gt;Entry&lt;/span&gt;&lt;span style=&quot;background-color: rgb(31, 31, 31); color: rgb(204, 204, 204); font-family: Consolas, &amp;quot;Courier New&amp;quot;, monospace; font-size: 11px;&quot;&gt;&amp;lt;&lt;/span&gt;&lt;span style=&quot;font-family: Consolas, &amp;quot;Courier New&amp;quot;, monospace; font-size: 11px; color: rgb(78, 201, 176);&quot;&gt;T&lt;/span&gt;&lt;span style=&quot;background-color: rgb(31, 31, 31); color: rgb(204, 204, 204); font-family: Consolas, &amp;quot;Courier New&amp;quot;, monospace; font-size: 11px;&quot;&gt;&amp;gt;&amp;gt;&lt;/span&gt;" style="text;strokeColor=none;fillColor=none;align=left;verticalAlign=top;spacingLeft=4;spacingRight=4;overflow=hidden;rotatable=0;points=[[0,0.5],[1,0.5]];portConstraint=eastwest;whiteSpace=wrap;html=1;fontSize=11;" vertex="1" parent="KicttZeMoANfHWGI0RuL-10">
                    <mxGeometry y="60" width="313" height="26" as="geometry"/>
                </mxCell>
                <mxCell id="KicttZeMoANfHWGI0RuL-14" value="Entry&amp;lt;T&amp;gt;" style="swimlane;fontStyle=0;childLayout=stackLayout;horizontal=1;startSize=26;fillColor=none;horizontalStack=0;resizeParent=1;resizeParentMax=0;resizeLast=0;collapsible=1;marginBottom=0;whiteSpace=wrap;html=1;" parent="4" vertex="1">
                    <mxGeometry x="630" y="249" width="95" height="78" as="geometry"/>
                </mxCell>
                <mxCell id="KicttZeMoANfHWGI0RuL-15" value="- data: T" style="text;strokeColor=none;fillColor=none;align=left;verticalAlign=top;spacingLeft=4;spacingRight=4;overflow=hidden;rotatable=0;points=[[0,0.5],[1,0.5]];portConstraint=eastwest;whiteSpace=wrap;html=1;" parent="KicttZeMoANfHWGI0RuL-14" vertex="1">
                    <mxGeometry y="26" width="95" height="26" as="geometry"/>
                </mxCell>
                <mxCell id="KicttZeMoANfHWGI0RuL-16" value="- last_cas: u32" style="text;strokeColor=none;fillColor=none;align=left;verticalAlign=top;spacingLeft=4;spacingRight=4;overflow=hidden;rotatable=0;points=[[0,0.5],[1,0.5]];portConstraint=eastwest;whiteSpace=wrap;html=1;" parent="KicttZeMoANfHWGI0RuL-14" vertex="1">
                    <mxGeometry y="52" width="95" height="26" as="geometry"/>
                </mxCell>
                <mxCell id="KicttZeMoANfHWGI0RuL-26" value="Use" style="endArrow=open;endSize=12;dashed=1;html=1;rounded=0;" parent="4" source="KicttZeMoANfHWGI0RuL-10" target="KicttZeMoANfHWGI0RuL-14" edge="1">
                    <mxGeometry width="160" relative="1" as="geometry">
                        <mxPoint x="421" y="378" as="sourcePoint"/>
                        <mxPoint x="301" y="348" as="targetPoint"/>
                    </mxGeometry>
                </mxCell>
                <mxCell id="KicttZeMoANfHWGI0RuL-150" value="Logger" style="swimlane;horizontal=0;whiteSpace=wrap;html=1;" parent="4" vertex="1">
                    <mxGeometry x="77" y="51" width="300" height="210" as="geometry"/>
                </mxCell>
                <mxCell id="KicttZeMoANfHWGI0RuL-153" value="Logger" style="swimlane;fontStyle=0;childLayout=stackLayout;horizontal=1;startSize=26;fillColor=none;horizontalStack=0;resizeParent=1;resizeParentMax=0;resizeLast=0;collapsible=1;marginBottom=0;whiteSpace=wrap;html=1;" parent="KicttZeMoANfHWGI0RuL-150" vertex="1">
                    <mxGeometry x="40" y="25" width="230" height="156" as="geometry"/>
                </mxCell>
                <mxCell id="KicttZeMoANfHWGI0RuL-154" value="+ log_trace(&amp;amp;str)" style="text;strokeColor=none;fillColor=none;align=left;verticalAlign=top;spacingLeft=4;spacingRight=4;overflow=hidden;rotatable=0;points=[[0,0.5],[1,0.5]];portConstraint=eastwest;whiteSpace=wrap;html=1;" parent="KicttZeMoANfHWGI0RuL-153" vertex="1">
                    <mxGeometry y="26" width="230" height="26" as="geometry"/>
                </mxCell>
                <mxCell id="KicttZeMoANfHWGI0RuL-157" value="+ log_info(&amp;amp;str)" style="text;strokeColor=none;fillColor=none;align=left;verticalAlign=top;spacingLeft=4;spacingRight=4;overflow=hidden;rotatable=0;points=[[0,0.5],[1,0.5]];portConstraint=eastwest;whiteSpace=wrap;html=1;" parent="KicttZeMoANfHWGI0RuL-153" vertex="1">
                    <mxGeometry y="52" width="230" height="26" as="geometry"/>
                </mxCell>
                <mxCell id="KicttZeMoANfHWGI0RuL-158" value="+ log_debug(&amp;amp;str)" style="text;strokeColor=none;fillColor=none;align=left;verticalAlign=top;spacingLeft=4;spacingRight=4;overflow=hidden;rotatable=0;points=[[0,0.5],[1,0.5]];portConstraint=eastwest;whiteSpace=wrap;html=1;" parent="KicttZeMoANfHWGI0RuL-153" vertex="1">
                    <mxGeometry y="78" width="230" height="26" as="geometry"/>
                </mxCell>
                <mxCell id="KicttZeMoANfHWGI0RuL-159" value="+ log_warn(&amp;amp;str)" style="text;strokeColor=none;fillColor=none;align=left;verticalAlign=top;spacingLeft=4;spacingRight=4;overflow=hidden;rotatable=0;points=[[0,0.5],[1,0.5]];portConstraint=eastwest;whiteSpace=wrap;html=1;" parent="KicttZeMoANfHWGI0RuL-153" vertex="1">
                    <mxGeometry y="104" width="230" height="26" as="geometry"/>
                </mxCell>
                <mxCell id="KicttZeMoANfHWGI0RuL-160" value="+ log_err(&amp;amp;str)" style="text;strokeColor=none;fillColor=none;align=left;verticalAlign=top;spacingLeft=4;spacingRight=4;overflow=hidden;rotatable=0;points=[[0,0.5],[1,0.5]];portConstraint=eastwest;whiteSpace=wrap;html=1;" parent="KicttZeMoANfHWGI0RuL-153" vertex="1">
                    <mxGeometry y="130" width="230" height="26" as="geometry"/>
                </mxCell>
                <mxCell id="KicttZeMoANfHWGI0RuL-93" value="&lt;div style=&quot;color: rgb(204, 204, 204); font-family: Consolas, &amp;quot;Courier New&amp;quot;, monospace; font-size: 14px; line-height: 19px;&quot;&gt;&lt;span style=&quot;color: #4ec9b0;&quot;&gt;JWT&lt;/span&gt;&lt;/div&gt;" style="swimlane;fontStyle=0;childLayout=stackLayout;horizontal=1;startSize=26;fillColor=none;horizontalStack=0;resizeParent=1;resizeParentMax=0;resizeLast=0;collapsible=1;marginBottom=0;whiteSpace=wrap;html=1;labelBackgroundColor=none;" parent="4" vertex="1">
                    <mxGeometry x="2253" y="98" width="630" height="294" as="geometry"/>
                </mxCell>
                <mxCell id="KicttZeMoANfHWGI0RuL-94" value="+&amp;nbsp;&lt;span style=&quot;font-family: Consolas, &amp;quot;Courier New&amp;quot;, monospace; font-size: 11px; color: rgb(156, 220, 254);&quot;&gt;header&lt;/span&gt;&lt;span style=&quot;font-family: Consolas, &amp;quot;Courier New&amp;quot;, monospace; font-size: 11px; color: rgb(212, 212, 212);&quot;&gt;:&lt;/span&gt;&lt;span style=&quot;color: rgb(204, 204, 204); font-family: Consolas, &amp;quot;Courier New&amp;quot;, monospace; font-size: 11px;&quot;&gt; &lt;/span&gt;&lt;span style=&quot;font-family: Consolas, &amp;quot;Courier New&amp;quot;, monospace; font-size: 11px; color: rgb(78, 201, 176);&quot;&gt;JWTHeader&lt;/span&gt;" style="text;strokeColor=none;fillColor=none;align=left;verticalAlign=top;spacingLeft=4;spacingRight=4;overflow=hidden;rotatable=0;points=[[0,0.5],[1,0.5]];portConstraint=eastwest;whiteSpace=wrap;html=1;fontSize=11;labelBackgroundColor=none;" parent="KicttZeMoANfHWGI0RuL-93" vertex="1">
                    <mxGeometry y="26" width="630" height="26" as="geometry"/>
                </mxCell>
                <mxCell id="KicttZeMoANfHWGI0RuL-95" value="+&amp;nbsp;&lt;span style=&quot;font-family: Consolas, &amp;quot;Courier New&amp;quot;, monospace; font-size: 11px; color: rgb(156, 220, 254);&quot;&gt;claims&lt;/span&gt;&lt;span style=&quot;font-family: Consolas, &amp;quot;Courier New&amp;quot;, monospace; font-size: 11px; color: rgb(212, 212, 212);&quot;&gt;:&lt;/span&gt;&lt;span style=&quot;color: rgb(204, 204, 204); font-family: Consolas, &amp;quot;Courier New&amp;quot;, monospace; font-size: 11px;&quot;&gt; &lt;/span&gt;&lt;span style=&quot;font-family: Consolas, &amp;quot;Courier New&amp;quot;, monospace; font-size: 11px; color: rgb(78, 201, 176);&quot;&gt;JWTClaims&lt;/span&gt;" style="text;strokeColor=none;fillColor=none;align=left;verticalAlign=top;spacingLeft=4;spacingRight=4;overflow=hidden;rotatable=0;points=[[0,0.5],[1,0.5]];portConstraint=eastwest;whiteSpace=wrap;html=1;fontSize=11;labelBackgroundColor=none;" parent="KicttZeMoANfHWGI0RuL-93" vertex="1">
                    <mxGeometry y="52" width="630" height="26" as="geometry"/>
                </mxCell>
                <mxCell id="KicttZeMoANfHWGI0RuL-97" value="+&amp;nbsp;&lt;span style=&quot;font-family: Consolas, &amp;quot;Courier New&amp;quot;, monospace; font-size: 11px; color: rgb(156, 220, 254);&quot;&gt;signature&lt;/span&gt;&lt;span style=&quot;font-family: Consolas, &amp;quot;Courier New&amp;quot;, monospace; font-size: 11px; color: rgb(212, 212, 212);&quot;&gt;:&lt;/span&gt;&lt;span style=&quot;color: rgb(204, 204, 204); font-family: Consolas, &amp;quot;Courier New&amp;quot;, monospace; font-size: 11px;&quot;&gt; &lt;/span&gt;&lt;span style=&quot;font-family: Consolas, &amp;quot;Courier New&amp;quot;, monospace; font-size: 11px; color: rgb(78, 201, 176);&quot;&gt;String&lt;/span&gt;" style="text;strokeColor=none;fillColor=none;align=left;verticalAlign=top;spacingLeft=4;spacingRight=4;overflow=hidden;rotatable=0;points=[[0,0.5],[1,0.5]];portConstraint=eastwest;whiteSpace=wrap;html=1;fontSize=11;labelBackgroundColor=none;" parent="KicttZeMoANfHWGI0RuL-93" vertex="1">
                    <mxGeometry y="78" width="630" height="26" as="geometry"/>
                </mxCell>
                <mxCell id="KicttZeMoANfHWGI0RuL-98" value="+&amp;nbsp;&lt;span style=&quot;font-family: Consolas, &amp;quot;Courier New&amp;quot;, monospace; font-size: 11px; color: rgb(156, 220, 254);&quot;&gt;raw&lt;/span&gt;&lt;span style=&quot;font-family: Consolas, &amp;quot;Courier New&amp;quot;, monospace; font-size: 11px; color: rgb(212, 212, 212);&quot;&gt;:&lt;/span&gt;&lt;span style=&quot;color: rgb(204, 204, 204); font-family: Consolas, &amp;quot;Courier New&amp;quot;, monospace; font-size: 11px;&quot;&gt; &lt;/span&gt;&lt;span style=&quot;font-family: Consolas, &amp;quot;Courier New&amp;quot;, monospace; font-size: 11px; color: rgb(78, 201, 176);&quot;&gt;String&lt;/span&gt;" style="text;strokeColor=none;fillColor=none;align=left;verticalAlign=top;spacingLeft=4;spacingRight=4;overflow=hidden;rotatable=0;points=[[0,0.5],[1,0.5]];portConstraint=eastwest;whiteSpace=wrap;html=1;fontSize=11;labelBackgroundColor=none;" parent="KicttZeMoANfHWGI0RuL-93" vertex="1">
                    <mxGeometry y="104" width="630" height="26" as="geometry"/>
                </mxCell>
                <mxCell id="KicttZeMoANfHWGI0RuL-168" value="" style="line;strokeWidth=1;fillColor=none;align=left;verticalAlign=middle;spacingTop=-1;spacingLeft=3;spacingRight=3;rotatable=0;labelPosition=right;points=[];portConstraint=eastwest;strokeColor=inherit;" parent="KicttZeMoANfHWGI0RuL-93" vertex="1">
                    <mxGeometry y="130" width="630" height="8" as="geometry"/>
                </mxCell>
                <mxCell id="KicttZeMoANfHWGI0RuL-113" value="+&amp;nbsp;&lt;span style=&quot;font-family: Consolas, &amp;quot;Courier New&amp;quot;, monospace; font-size: 11px; color: rgb(220, 220, 170);&quot;&gt;validate_token_format&lt;/span&gt;&lt;span style=&quot;color: rgb(204, 204, 204); font-family: Consolas, &amp;quot;Courier New&amp;quot;, monospace; font-size: 11px;&quot;&gt;(&lt;/span&gt;&lt;span style=&quot;font-family: Consolas, &amp;quot;Courier New&amp;quot;, monospace; font-size: 11px; color: rgb(156, 220, 254);&quot;&gt;regex&lt;/span&gt;&lt;span style=&quot;color: rgb(204, 204, 204); font-family: Consolas, &amp;quot;Courier New&amp;quot;, monospace; font-size: 11px;&quot;&gt; &lt;/span&gt;&lt;span style=&quot;font-family: Consolas, &amp;quot;Courier New&amp;quot;, monospace; font-size: 11px; color: rgb(212, 212, 212);&quot;&gt;:&lt;/span&gt;&lt;span style=&quot;color: rgb(204, 204, 204); font-family: Consolas, &amp;quot;Courier New&amp;quot;, monospace; font-size: 11px;&quot;&gt; &lt;/span&gt;&lt;span style=&quot;font-family: Consolas, &amp;quot;Courier New&amp;quot;, monospace; font-size: 11px; color: rgb(212, 212, 212);&quot;&gt;&amp;amp;&lt;/span&gt;&lt;span style=&quot;font-family: Consolas, &amp;quot;Courier New&amp;quot;, monospace; font-size: 11px; color: rgb(78, 201, 176);&quot;&gt;String&lt;/span&gt;&lt;span style=&quot;color: rgb(204, 204, 204); font-family: Consolas, &amp;quot;Courier New&amp;quot;, monospace; font-size: 11px;&quot;&gt;, &lt;/span&gt;&lt;span style=&quot;font-family: Consolas, &amp;quot;Courier New&amp;quot;, monospace; font-size: 11px; color: rgb(156, 220, 254);&quot;&gt;token&lt;/span&gt;&lt;span style=&quot;color: rgb(204, 204, 204); font-family: Consolas, &amp;quot;Courier New&amp;quot;, monospace; font-size: 11px;&quot;&gt; &lt;/span&gt;&lt;span style=&quot;font-family: Consolas, &amp;quot;Courier New&amp;quot;, monospace; font-size: 11px; color: rgb(212, 212, 212);&quot;&gt;:&lt;/span&gt;&lt;span style=&quot;color: rgb(204, 204, 204); font-family: Consolas, &amp;quot;Courier New&amp;quot;, monospace; font-size: 11px;&quot;&gt; &lt;/span&gt;&lt;span style=&quot;font-family: Consolas, &amp;quot;Courier New&amp;quot;, monospace; font-size: 11px; color: rgb(212, 212, 212);&quot;&gt;&amp;amp;&lt;/span&gt;&lt;span style=&quot;font-family: Consolas, &amp;quot;Courier New&amp;quot;, monospace; font-size: 11px; color: rgb(78, 201, 176);&quot;&gt;String&lt;/span&gt;&lt;span style=&quot;color: rgb(204, 204, 204); font-family: Consolas, &amp;quot;Courier New&amp;quot;, monospace; font-size: 11px;&quot;&gt;) &lt;/span&gt;&lt;span style=&quot;font-family: Consolas, &amp;quot;Courier New&amp;quot;, monospace; font-size: 11px; color: rgb(212, 212, 212);&quot;&gt;-&amp;gt;&lt;/span&gt;&lt;span style=&quot;color: rgb(204, 204, 204); font-family: Consolas, &amp;quot;Courier New&amp;quot;, monospace; font-size: 11px;&quot;&gt; &lt;/span&gt;&lt;span style=&quot;font-family: Consolas, &amp;quot;Courier New&amp;quot;, monospace; font-size: 11px; color: rgb(78, 201, 176);&quot;&gt;Result&lt;/span&gt;&lt;span style=&quot;color: rgb(204, 204, 204); font-family: Consolas, &amp;quot;Courier New&amp;quot;, monospace; font-size: 11px;&quot;&gt;&amp;lt;(), &lt;/span&gt;&lt;span style=&quot;font-family: Consolas, &amp;quot;Courier New&amp;quot;, monospace; font-size: 11px; color: rgb(78, 201, 176);&quot;&gt;HttpError&lt;/span&gt;&lt;span style=&quot;color: rgb(204, 204, 204); font-family: Consolas, &amp;quot;Courier New&amp;quot;, monospace; font-size: 11px;&quot;&gt;&amp;gt;&lt;/span&gt;" style="text;strokeColor=none;fillColor=none;align=left;verticalAlign=top;spacingLeft=4;spacingRight=4;overflow=hidden;rotatable=0;points=[[0,0.5],[1,0.5]];portConstraint=eastwest;whiteSpace=wrap;html=1;fontSize=11;labelBackgroundColor=none;" parent="KicttZeMoANfHWGI0RuL-93" vertex="1">
                    <mxGeometry y="138" width="630" height="24" as="geometry"/>
                </mxCell>
                <mxCell id="KicttZeMoANfHWGI0RuL-114" value="+&amp;nbsp;&lt;span style=&quot;font-family: Consolas, &amp;quot;Courier New&amp;quot;, monospace; font-size: 11px; color: rgb(220, 220, 170);&quot;&gt;from_token&lt;/span&gt;&lt;span style=&quot;color: rgb(204, 204, 204); font-family: Consolas, &amp;quot;Courier New&amp;quot;, monospace; font-size: 11px;&quot;&gt;(&lt;/span&gt;&lt;span style=&quot;font-family: Consolas, &amp;quot;Courier New&amp;quot;, monospace; font-size: 11px; color: rgb(156, 220, 254);&quot;&gt;token&lt;/span&gt;&lt;span style=&quot;font-family: Consolas, &amp;quot;Courier New&amp;quot;, monospace; font-size: 11px; color: rgb(212, 212, 212);&quot;&gt;:&lt;/span&gt;&lt;span style=&quot;color: rgb(204, 204, 204); font-family: Consolas, &amp;quot;Courier New&amp;quot;, monospace; font-size: 11px;&quot;&gt; &lt;/span&gt;&lt;span style=&quot;font-family: Consolas, &amp;quot;Courier New&amp;quot;, monospace; font-size: 11px; color: rgb(212, 212, 212);&quot;&gt;&amp;amp;&lt;/span&gt;&lt;span style=&quot;font-family: Consolas, &amp;quot;Courier New&amp;quot;, monospace; font-size: 11px; color: rgb(78, 201, 176);&quot;&gt;String&lt;/span&gt;&lt;span style=&quot;color: rgb(204, 204, 204); font-family: Consolas, &amp;quot;Courier New&amp;quot;, monospace; font-size: 11px;&quot;&gt;) &lt;/span&gt;&lt;span style=&quot;font-family: Consolas, &amp;quot;Courier New&amp;quot;, monospace; font-size: 11px; color: rgb(212, 212, 212);&quot;&gt;-&amp;gt;&lt;/span&gt;&lt;span style=&quot;color: rgb(204, 204, 204); font-family: Consolas, &amp;quot;Courier New&amp;quot;, monospace; font-size: 11px;&quot;&gt; &lt;/span&gt;&lt;span style=&quot;font-family: Consolas, &amp;quot;Courier New&amp;quot;, monospace; font-size: 11px; color: rgb(78, 201, 176);&quot;&gt;Result&lt;/span&gt;&lt;span style=&quot;color: rgb(204, 204, 204); font-family: Consolas, &amp;quot;Courier New&amp;quot;, monospace; font-size: 11px;&quot;&gt;&amp;lt;&lt;/span&gt;&lt;span style=&quot;font-family: Consolas, &amp;quot;Courier New&amp;quot;, monospace; font-size: 11px; color: rgb(86, 156, 214);&quot;&gt;Self&lt;/span&gt;&lt;span style=&quot;color: rgb(204, 204, 204); font-family: Consolas, &amp;quot;Courier New&amp;quot;, monospace; font-size: 11px;&quot;&gt;, &lt;/span&gt;&lt;span style=&quot;font-family: Consolas, &amp;quot;Courier New&amp;quot;, monospace; font-size: 11px; color: rgb(78, 201, 176);&quot;&gt;HttpError&lt;/span&gt;&lt;span style=&quot;color: rgb(204, 204, 204); font-family: Consolas, &amp;quot;Courier New&amp;quot;, monospace; font-size: 11px;&quot;&gt;&amp;gt;&lt;/span&gt;" style="text;strokeColor=none;fillColor=none;align=left;verticalAlign=top;spacingLeft=4;spacingRight=4;overflow=hidden;rotatable=0;points=[[0,0.5],[1,0.5]];portConstraint=eastwest;whiteSpace=wrap;html=1;fontSize=11;labelBackgroundColor=none;" parent="KicttZeMoANfHWGI0RuL-93" vertex="1">
                    <mxGeometry y="162" width="630" height="26" as="geometry"/>
                </mxCell>
                <mxCell id="KicttZeMoANfHWGI0RuL-115" value="+&amp;nbsp;&lt;span style=&quot;font-family: Consolas, &amp;quot;Courier New&amp;quot;, monospace; font-size: 11px; color: rgb(220, 220, 170);&quot;&gt;expect_header&lt;/span&gt;&lt;span style=&quot;color: rgb(204, 204, 204); font-family: Consolas, &amp;quot;Courier New&amp;quot;, monospace; font-size: 11px;&quot;&gt;(&lt;/span&gt;&lt;span style=&quot;font-family: Consolas, &amp;quot;Courier New&amp;quot;, monospace; font-size: 11px; color: rgb(212, 212, 212);&quot;&gt;&amp;amp;&lt;/span&gt;&lt;span style=&quot;font-family: Consolas, &amp;quot;Courier New&amp;quot;, monospace; font-size: 11px; color: rgb(86, 156, 214);&quot;&gt;self&lt;/span&gt;&lt;span style=&quot;color: rgb(204, 204, 204); font-family: Consolas, &amp;quot;Courier New&amp;quot;, monospace; font-size: 11px;&quot;&gt;, &lt;/span&gt;&lt;span style=&quot;font-family: Consolas, &amp;quot;Courier New&amp;quot;, monospace; font-size: 11px; color: rgb(156, 220, 254);&quot;&gt;expected_header&lt;/span&gt;&lt;span style=&quot;font-family: Consolas, &amp;quot;Courier New&amp;quot;, monospace; font-size: 11px; color: rgb(212, 212, 212);&quot;&gt;:&lt;/span&gt;&lt;span style=&quot;color: rgb(204, 204, 204); font-family: Consolas, &amp;quot;Courier New&amp;quot;, monospace; font-size: 11px;&quot;&gt; &lt;/span&gt;&lt;span style=&quot;font-family: Consolas, &amp;quot;Courier New&amp;quot;, monospace; font-size: 11px; color: rgb(212, 212, 212);&quot;&gt;&amp;amp;&lt;/span&gt;&lt;span style=&quot;font-family: Consolas, &amp;quot;Courier New&amp;quot;, monospace; font-size: 11px; color: rgb(78, 201, 176);&quot;&gt;str&lt;/span&gt;&lt;span style=&quot;color: rgb(204, 204, 204); font-family: Consolas, &amp;quot;Courier New&amp;quot;, monospace; font-size: 11px;&quot;&gt;) &lt;/span&gt;&lt;span style=&quot;font-family: Consolas, &amp;quot;Courier New&amp;quot;, monospace; font-size: 11px; color: rgb(212, 212, 212);&quot;&gt;-&amp;gt;&lt;/span&gt;&lt;span style=&quot;color: rgb(204, 204, 204); font-family: Consolas, &amp;quot;Courier New&amp;quot;, monospace; font-size: 11px;&quot;&gt; &lt;/span&gt;&lt;span style=&quot;font-family: Consolas, &amp;quot;Courier New&amp;quot;, monospace; font-size: 11px; color: rgb(78, 201, 176);&quot;&gt;Result&lt;/span&gt;&lt;span style=&quot;color: rgb(204, 204, 204); font-family: Consolas, &amp;quot;Courier New&amp;quot;, monospace; font-size: 11px;&quot;&gt;&amp;lt;(), &lt;/span&gt;&lt;span style=&quot;font-family: Consolas, &amp;quot;Courier New&amp;quot;, monospace; font-size: 11px; color: rgb(78, 201, 176);&quot;&gt;HttpError&lt;/span&gt;&lt;span style=&quot;color: rgb(204, 204, 204); font-family: Consolas, &amp;quot;Courier New&amp;quot;, monospace; font-size: 11px;&quot;&gt;&amp;gt;&lt;/span&gt;" style="text;strokeColor=none;fillColor=none;align=left;verticalAlign=top;spacingLeft=4;spacingRight=4;overflow=hidden;rotatable=0;points=[[0,0.5],[1,0.5]];portConstraint=eastwest;whiteSpace=wrap;html=1;fontSize=11;labelBackgroundColor=none;" parent="KicttZeMoANfHWGI0RuL-93" vertex="1">
                    <mxGeometry y="188" width="630" height="26" as="geometry"/>
                </mxCell>
                <mxCell id="KicttZeMoANfHWGI0RuL-118" value="+&amp;nbsp;&lt;span style=&quot;font-family: Consolas, &amp;quot;Courier New&amp;quot;, monospace; font-size: 11px; color: rgb(220, 220, 170);&quot;&gt;validate_claim_value&lt;/span&gt;&lt;span style=&quot;color: rgb(204, 204, 204); font-family: Consolas, &amp;quot;Courier New&amp;quot;, monospace; font-size: 11px;&quot;&gt;&amp;lt;&lt;/span&gt;&lt;span style=&quot;font-family: Consolas, &amp;quot;Courier New&amp;quot;, monospace; font-size: 11px; color: rgb(78, 201, 176);&quot;&gt;T&lt;/span&gt;&lt;span style=&quot;color: rgb(204, 204, 204); font-family: Consolas, &amp;quot;Courier New&amp;quot;, monospace; font-size: 11px;&quot;&gt;&amp;gt;(&lt;/span&gt;&lt;span style=&quot;font-family: Consolas, &amp;quot;Courier New&amp;quot;, monospace; font-size: 11px; color: rgb(212, 212, 212);&quot;&gt;&amp;amp;&lt;/span&gt;&lt;span style=&quot;font-family: Consolas, &amp;quot;Courier New&amp;quot;, monospace; font-size: 11px; color: rgb(86, 156, 214);&quot;&gt;self&lt;/span&gt;&lt;span style=&quot;color: rgb(204, 204, 204); font-family: Consolas, &amp;quot;Courier New&amp;quot;, monospace; font-size: 11px;&quot;&gt;, &lt;/span&gt;&lt;span style=&quot;font-family: Consolas, &amp;quot;Courier New&amp;quot;, monospace; font-size: 11px; color: rgb(156, 220, 254);&quot;&gt;claim_id&lt;/span&gt;&lt;span style=&quot;font-family: Consolas, &amp;quot;Courier New&amp;quot;, monospace; font-size: 11px; color: rgb(212, 212, 212);&quot;&gt;:&lt;/span&gt;&lt;span style=&quot;color: rgb(204, 204, 204); font-family: Consolas, &amp;quot;Courier New&amp;quot;, monospace; font-size: 11px;&quot;&gt; &lt;/span&gt;&lt;span style=&quot;font-family: Consolas, &amp;quot;Courier New&amp;quot;, monospace; font-size: 11px; color: rgb(212, 212, 212);&quot;&gt;&amp;amp;&lt;/span&gt;&lt;span style=&quot;font-family: Consolas, &amp;quot;Courier New&amp;quot;, monospace; font-size: 11px; color: rgb(78, 201, 176);&quot;&gt;str&lt;/span&gt;&lt;span style=&quot;color: rgb(204, 204, 204); font-family: Consolas, &amp;quot;Courier New&amp;quot;, monospace; font-size: 11px;&quot;&gt;, &lt;/span&gt;&lt;span style=&quot;font-family: Consolas, &amp;quot;Courier New&amp;quot;, monospace; font-size: 11px; color: rgb(156, 220, 254);&quot;&gt;expected_values&lt;/span&gt;&lt;span style=&quot;font-family: Consolas, &amp;quot;Courier New&amp;quot;, monospace; font-size: 11px; color: rgb(212, 212, 212);&quot;&gt;:&lt;/span&gt;&lt;span style=&quot;color: rgb(204, 204, 204); font-family: Consolas, &amp;quot;Courier New&amp;quot;, monospace; font-size: 11px;&quot;&gt; &lt;/span&gt;&lt;span style=&quot;font-family: Consolas, &amp;quot;Courier New&amp;quot;, monospace; font-size: 11px; color: rgb(212, 212, 212);&quot;&gt;&amp;amp;&lt;/span&gt;&lt;span style=&quot;font-family: Consolas, &amp;quot;Courier New&amp;quot;, monospace; font-size: 11px; color: rgb(78, 201, 176);&quot;&gt;Vec&lt;/span&gt;&lt;span style=&quot;color: rgb(204, 204, 204); font-family: Consolas, &amp;quot;Courier New&amp;quot;, monospace; font-size: 11px;&quot;&gt;&amp;lt;&lt;/span&gt;&lt;span style=&quot;font-family: Consolas, &amp;quot;Courier New&amp;quot;, monospace; font-size: 11px; color: rgb(78, 201, 176);&quot;&gt;T&lt;/span&gt;&lt;span style=&quot;color: rgb(204, 204, 204); font-family: Consolas, &amp;quot;Courier New&amp;quot;, monospace; font-size: 11px;&quot;&gt;&amp;gt;) &lt;/span&gt;&lt;span style=&quot;font-family: Consolas, &amp;quot;Courier New&amp;quot;, monospace; font-size: 11px; color: rgb(212, 212, 212);&quot;&gt;-&amp;gt;&lt;/span&gt;&lt;span style=&quot;color: rgb(204, 204, 204); font-family: Consolas, &amp;quot;Courier New&amp;quot;, monospace; font-size: 11px;&quot;&gt; &lt;/span&gt;&lt;span style=&quot;font-family: Consolas, &amp;quot;Courier New&amp;quot;, monospace; font-size: 11px; color: rgb(78, 201, 176);&quot;&gt;Result&lt;/span&gt;&lt;span style=&quot;color: rgb(204, 204, 204); font-family: Consolas, &amp;quot;Courier New&amp;quot;, monospace; font-size: 11px;&quot;&gt;&amp;lt;(), &lt;/span&gt;&lt;span style=&quot;font-family: Consolas, &amp;quot;Courier New&amp;quot;, monospace; font-size: 11px; color: rgb(78, 201, 176);&quot;&gt;HttpError&lt;/span&gt;&lt;span style=&quot;color: rgb(204, 204, 204); font-family: Consolas, &amp;quot;Courier New&amp;quot;, monospace; font-size: 11px;&quot;&gt;&amp;gt;&lt;/span&gt;" style="text;strokeColor=none;fillColor=none;align=left;verticalAlign=top;spacingLeft=4;spacingRight=4;overflow=hidden;rotatable=0;points=[[0,0.5],[1,0.5]];portConstraint=eastwest;whiteSpace=wrap;html=1;fontSize=11;labelBackgroundColor=none;" parent="KicttZeMoANfHWGI0RuL-93" vertex="1">
                    <mxGeometry y="214" width="630" height="27" as="geometry"/>
                </mxCell>
                <mxCell id="KicttZeMoANfHWGI0RuL-116" value="+&amp;nbsp;&lt;span style=&quot;font-family: Consolas, &amp;quot;Courier New&amp;quot;, monospace; font-size: 11px; color: rgb(220, 220, 170);&quot;&gt;validate_header_value&lt;/span&gt;&lt;span style=&quot;color: rgb(204, 204, 204); font-family: Consolas, &amp;quot;Courier New&amp;quot;, monospace; font-size: 11px;&quot;&gt;&amp;lt;&lt;/span&gt;&lt;span style=&quot;font-family: Consolas, &amp;quot;Courier New&amp;quot;, monospace; font-size: 11px; color: rgb(78, 201, 176);&quot;&gt;T&lt;/span&gt;&lt;span style=&quot;color: rgb(204, 204, 204); font-family: Consolas, &amp;quot;Courier New&amp;quot;, monospace; font-size: 11px;&quot;&gt;&amp;gt;(&lt;/span&gt;&lt;span style=&quot;font-family: Consolas, &amp;quot;Courier New&amp;quot;, monospace; font-size: 11px; color: rgb(212, 212, 212);&quot;&gt;&amp;amp;&lt;/span&gt;&lt;span style=&quot;font-family: Consolas, &amp;quot;Courier New&amp;quot;, monospace; font-size: 11px; color: rgb(86, 156, 214);&quot;&gt;self&lt;/span&gt;&lt;span style=&quot;color: rgb(204, 204, 204); font-family: Consolas, &amp;quot;Courier New&amp;quot;, monospace; font-size: 11px;&quot;&gt;, &lt;/span&gt;&lt;span style=&quot;font-family: Consolas, &amp;quot;Courier New&amp;quot;, monospace; font-size: 11px; color: rgb(156, 220, 254);&quot;&gt;header_id&lt;/span&gt;&lt;span style=&quot;font-family: Consolas, &amp;quot;Courier New&amp;quot;, monospace; font-size: 11px; color: rgb(212, 212, 212);&quot;&gt;:&lt;/span&gt;&lt;span style=&quot;color: rgb(204, 204, 204); font-family: Consolas, &amp;quot;Courier New&amp;quot;, monospace; font-size: 11px;&quot;&gt; &lt;/span&gt;&lt;span style=&quot;font-family: Consolas, &amp;quot;Courier New&amp;quot;, monospace; font-size: 11px; color: rgb(212, 212, 212);&quot;&gt;&amp;amp;&lt;/span&gt;&lt;span style=&quot;font-family: Consolas, &amp;quot;Courier New&amp;quot;, monospace; font-size: 11px; color: rgb(78, 201, 176);&quot;&gt;str&lt;/span&gt;&lt;span style=&quot;color: rgb(204, 204, 204); font-family: Consolas, &amp;quot;Courier New&amp;quot;, monospace; font-size: 11px;&quot;&gt;, &lt;/span&gt;&lt;span style=&quot;font-family: Consolas, &amp;quot;Courier New&amp;quot;, monospace; font-size: 11px; color: rgb(156, 220, 254);&quot;&gt;expected_values&lt;/span&gt;&lt;span style=&quot;font-family: Consolas, &amp;quot;Courier New&amp;quot;, monospace; font-size: 11px; color: rgb(212, 212, 212);&quot;&gt;:&lt;/span&gt;&lt;span style=&quot;color: rgb(204, 204, 204); font-family: Consolas, &amp;quot;Courier New&amp;quot;, monospace; font-size: 11px;&quot;&gt; &lt;/span&gt;&lt;span style=&quot;font-family: Consolas, &amp;quot;Courier New&amp;quot;, monospace; font-size: 11px; color: rgb(212, 212, 212);&quot;&gt;&amp;amp;&lt;/span&gt;&lt;span style=&quot;font-family: Consolas, &amp;quot;Courier New&amp;quot;, monospace; font-size: 11px; color: rgb(78, 201, 176);&quot;&gt;Vec&lt;/span&gt;&lt;span style=&quot;color: rgb(204, 204, 204); font-family: Consolas, &amp;quot;Courier New&amp;quot;, monospace; font-size: 11px;&quot;&gt;&amp;lt;&lt;/span&gt;&lt;span style=&quot;font-family: Consolas, &amp;quot;Courier New&amp;quot;, monospace; font-size: 11px; color: rgb(78, 201, 176);&quot;&gt;T&lt;/span&gt;&lt;span style=&quot;color: rgb(204, 204, 204); font-family: Consolas, &amp;quot;Courier New&amp;quot;, monospace; font-size: 11px;&quot;&gt;&amp;gt;) &lt;/span&gt;&lt;span style=&quot;font-family: Consolas, &amp;quot;Courier New&amp;quot;, monospace; font-size: 11px; color: rgb(212, 212, 212);&quot;&gt;-&amp;gt;&lt;/span&gt;&lt;span style=&quot;color: rgb(204, 204, 204); font-family: Consolas, &amp;quot;Courier New&amp;quot;, monospace; font-size: 11px;&quot;&gt; &lt;/span&gt;&lt;span style=&quot;font-family: Consolas, &amp;quot;Courier New&amp;quot;, monospace; font-size: 11px; color: rgb(78, 201, 176);&quot;&gt;Result&lt;/span&gt;&lt;span style=&quot;color: rgb(204, 204, 204); font-family: Consolas, &amp;quot;Courier New&amp;quot;, monospace; font-size: 11px;&quot;&gt;&amp;lt;(), &lt;/span&gt;&lt;span style=&quot;font-family: Consolas, &amp;quot;Courier New&amp;quot;, monospace; font-size: 11px; color: rgb(78, 201, 176);&quot;&gt;HttpError&lt;/span&gt;&lt;span style=&quot;color: rgb(204, 204, 204); font-family: Consolas, &amp;quot;Courier New&amp;quot;, monospace; font-size: 11px;&quot;&gt;&amp;gt;&lt;/span&gt;" style="text;strokeColor=none;fillColor=none;align=left;verticalAlign=top;spacingLeft=4;spacingRight=4;overflow=hidden;rotatable=0;points=[[0,0.5],[1,0.5]];portConstraint=eastwest;whiteSpace=wrap;html=1;fontSize=11;labelBackgroundColor=none;" parent="KicttZeMoANfHWGI0RuL-93" vertex="1">
                    <mxGeometry y="241" width="630" height="27" as="geometry"/>
                </mxCell>
                <mxCell id="KicttZeMoANfHWGI0RuL-117" value="+&amp;nbsp;&lt;span style=&quot;font-family: Consolas, &amp;quot;Courier New&amp;quot;, monospace; font-size: 11px; color: rgb(220, 220, 170);&quot;&gt;validate_expiration&lt;/span&gt;&lt;span style=&quot;color: rgb(204, 204, 204); font-family: Consolas, &amp;quot;Courier New&amp;quot;, monospace; font-size: 11px;&quot;&gt;(&lt;/span&gt;&lt;span style=&quot;font-family: Consolas, &amp;quot;Courier New&amp;quot;, monospace; font-size: 11px; color: rgb(212, 212, 212);&quot;&gt;&amp;amp;&lt;/span&gt;&lt;span style=&quot;font-family: Consolas, &amp;quot;Courier New&amp;quot;, monospace; font-size: 11px; color: rgb(86, 156, 214);&quot;&gt;self&lt;/span&gt;&lt;span style=&quot;color: rgb(204, 204, 204); font-family: Consolas, &amp;quot;Courier New&amp;quot;, monospace; font-size: 11px;&quot;&gt;) &lt;/span&gt;&lt;span style=&quot;font-family: Consolas, &amp;quot;Courier New&amp;quot;, monospace; font-size: 11px; color: rgb(212, 212, 212);&quot;&gt;-&amp;gt;&lt;/span&gt;&lt;span style=&quot;color: rgb(204, 204, 204); font-family: Consolas, &amp;quot;Courier New&amp;quot;, monospace; font-size: 11px;&quot;&gt; &lt;/span&gt;&lt;span style=&quot;font-family: Consolas, &amp;quot;Courier New&amp;quot;, monospace; font-size: 11px; color: rgb(78, 201, 176);&quot;&gt;Result&lt;/span&gt;&lt;span style=&quot;color: rgb(204, 204, 204); font-family: Consolas, &amp;quot;Courier New&amp;quot;, monospace; font-size: 11px;&quot;&gt;&amp;lt;(), &lt;/span&gt;&lt;span style=&quot;font-family: Consolas, &amp;quot;Courier New&amp;quot;, monospace; font-size: 11px; color: rgb(78, 201, 176);&quot;&gt;HttpError&lt;/span&gt;&lt;span style=&quot;color: rgb(204, 204, 204); font-family: Consolas, &amp;quot;Courier New&amp;quot;, monospace; font-size: 11px;&quot;&gt;&amp;gt;&lt;/span&gt;" style="text;strokeColor=none;fillColor=none;align=left;verticalAlign=top;spacingLeft=4;spacingRight=4;overflow=hidden;rotatable=0;points=[[0,0.5],[1,0.5]];portConstraint=eastwest;whiteSpace=wrap;html=1;fontSize=11;labelBackgroundColor=none;" parent="KicttZeMoANfHWGI0RuL-93" vertex="1">
                    <mxGeometry y="268" width="630" height="26" as="geometry"/>
                </mxCell>
                <mxCell id="KicttZeMoANfHWGI0RuL-99" value="&lt;div style=&quot;color: rgb(204, 204, 204); font-family: Consolas, &amp;quot;Courier New&amp;quot;, monospace; font-size: 14px; line-height: 19px;&quot;&gt;&lt;span style=&quot;color: #4ec9b0;&quot;&gt;JWTHeader&lt;/span&gt;&lt;/div&gt;" style="swimlane;fontStyle=0;childLayout=stackLayout;horizontal=1;startSize=26;fillColor=none;horizontalStack=0;resizeParent=1;resizeParentMax=0;resizeLast=0;collapsible=1;marginBottom=0;whiteSpace=wrap;html=1;labelBackgroundColor=none;" parent="4" vertex="1">
                    <mxGeometry x="2219" y="441" width="332" height="88" as="geometry"/>
                </mxCell>
                <mxCell id="KicttZeMoANfHWGI0RuL-100" value="&lt;div style=&quot;color: rgb(204, 204, 204); font-family: Consolas, &amp;quot;Courier New&amp;quot;, monospace; font-size: 11px; line-height: 19px;&quot;&gt;&lt;span style=&quot;color: rgb(156, 220, 254); font-size: 11px;&quot;&gt;+ headers&lt;/span&gt;&lt;span style=&quot;color: rgb(212, 212, 212); font-size: 11px;&quot;&gt;:&lt;/span&gt; &lt;span style=&quot;color: rgb(78, 201, 176); font-size: 11px;&quot;&gt;HashMap&lt;/span&gt;&amp;lt;&lt;span style=&quot;color: rgb(78, 201, 176); font-size: 11px;&quot;&gt;String&lt;/span&gt;, &lt;span style=&quot;color: rgb(78, 201, 176); font-size: 11px;&quot;&gt;Value&lt;/span&gt;&amp;gt;&lt;/div&gt;" style="text;strokeColor=none;fillColor=none;align=left;verticalAlign=top;spacingLeft=4;spacingRight=4;overflow=hidden;rotatable=0;points=[[0,0.5],[1,0.5]];portConstraint=eastwest;whiteSpace=wrap;html=1;fontSize=11;labelBackgroundColor=none;" parent="KicttZeMoANfHWGI0RuL-99" vertex="1">
                    <mxGeometry y="26" width="332" height="26" as="geometry"/>
                </mxCell>
                <mxCell id="11" value="" style="line;strokeWidth=1;fillColor=none;align=left;verticalAlign=middle;spacingTop=-1;spacingLeft=3;spacingRight=3;rotatable=0;labelPosition=right;points=[];portConstraint=eastwest;strokeColor=inherit;" vertex="1" parent="KicttZeMoANfHWGI0RuL-99">
                    <mxGeometry y="52" width="332" height="8" as="geometry"/>
                </mxCell>
                <mxCell id="10" value="+&amp;nbsp;&lt;span style=&quot;font-family: Consolas, &amp;quot;Courier New&amp;quot;, monospace; font-size: 11px; color: rgb(220, 220, 170);&quot;&gt;get&lt;/span&gt;&lt;span style=&quot;color: rgb(204, 204, 204); font-family: Consolas, &amp;quot;Courier New&amp;quot;, monospace; font-size: 11px;&quot;&gt;&amp;lt;&lt;/span&gt;&lt;span style=&quot;font-family: Consolas, &amp;quot;Courier New&amp;quot;, monospace; font-size: 11px; color: rgb(78, 201, 176);&quot;&gt;T&lt;/span&gt;&lt;span style=&quot;color: rgb(204, 204, 204); font-family: Consolas, &amp;quot;Courier New&amp;quot;, monospace; font-size: 11px;&quot;&gt;&amp;gt;(&lt;/span&gt;&lt;span style=&quot;font-family: Consolas, &amp;quot;Courier New&amp;quot;, monospace; font-size: 11px; color: rgb(212, 212, 212);&quot;&gt;&amp;amp;&lt;/span&gt;&lt;span style=&quot;font-family: Consolas, &amp;quot;Courier New&amp;quot;, monospace; font-size: 11px; color: rgb(86, 156, 214);&quot;&gt;self&lt;/span&gt;&lt;span style=&quot;color: rgb(204, 204, 204); font-family: Consolas, &amp;quot;Courier New&amp;quot;, monospace; font-size: 11px;&quot;&gt;, &lt;/span&gt;&lt;span style=&quot;font-family: Consolas, &amp;quot;Courier New&amp;quot;, monospace; font-size: 11px; color: rgb(156, 220, 254);&quot;&gt;header&lt;/span&gt;&lt;span style=&quot;font-family: Consolas, &amp;quot;Courier New&amp;quot;, monospace; font-size: 11px; color: rgb(212, 212, 212);&quot;&gt;:&lt;/span&gt;&lt;span style=&quot;color: rgb(204, 204, 204); font-family: Consolas, &amp;quot;Courier New&amp;quot;, monospace; font-size: 11px;&quot;&gt; &lt;/span&gt;&lt;span style=&quot;font-family: Consolas, &amp;quot;Courier New&amp;quot;, monospace; font-size: 11px; color: rgb(212, 212, 212);&quot;&gt;&amp;amp;&lt;/span&gt;&lt;span style=&quot;font-family: Consolas, &amp;quot;Courier New&amp;quot;, monospace; font-size: 11px; color: rgb(78, 201, 176);&quot;&gt;str&lt;/span&gt;&lt;span style=&quot;color: rgb(204, 204, 204); font-family: Consolas, &amp;quot;Courier New&amp;quot;, monospace; font-size: 11px;&quot;&gt;) &lt;/span&gt;&lt;span style=&quot;font-family: Consolas, &amp;quot;Courier New&amp;quot;, monospace; font-size: 11px; color: rgb(212, 212, 212);&quot;&gt;-&amp;gt;&lt;/span&gt;&lt;span style=&quot;color: rgb(204, 204, 204); font-family: Consolas, &amp;quot;Courier New&amp;quot;, monospace; font-size: 11px;&quot;&gt; &lt;/span&gt;&lt;span style=&quot;font-family: Consolas, &amp;quot;Courier New&amp;quot;, monospace; font-size: 11px; color: rgb(78, 201, 176);&quot;&gt;Result&lt;/span&gt;&lt;span style=&quot;color: rgb(204, 204, 204); font-family: Consolas, &amp;quot;Courier New&amp;quot;, monospace; font-size: 11px;&quot;&gt;&amp;lt;&lt;/span&gt;&lt;span style=&quot;font-family: Consolas, &amp;quot;Courier New&amp;quot;, monospace; font-size: 11px; color: rgb(78, 201, 176);&quot;&gt;T&lt;/span&gt;&lt;span style=&quot;color: rgb(204, 204, 204); font-family: Consolas, &amp;quot;Courier New&amp;quot;, monospace; font-size: 11px;&quot;&gt;, &lt;/span&gt;&lt;span style=&quot;font-family: Consolas, &amp;quot;Courier New&amp;quot;, monospace; font-size: 11px; color: rgb(78, 201, 176);&quot;&gt;HttpError&lt;/span&gt;&lt;span style=&quot;color: rgb(204, 204, 204); font-family: Consolas, &amp;quot;Courier New&amp;quot;, monospace; font-size: 11px;&quot;&gt;&amp;gt;&lt;/span&gt;" style="text;strokeColor=none;fillColor=none;align=left;verticalAlign=top;spacingLeft=4;spacingRight=4;overflow=hidden;rotatable=0;points=[[0,0.5],[1,0.5]];portConstraint=eastwest;whiteSpace=wrap;html=1;fontSize=11;labelBackgroundColor=none;" vertex="1" parent="KicttZeMoANfHWGI0RuL-99">
                    <mxGeometry y="60" width="332" height="28" as="geometry"/>
                </mxCell>
                <mxCell id="KicttZeMoANfHWGI0RuL-105" value="&lt;div style=&quot;color: rgb(204, 204, 204); font-family: Consolas, &amp;quot;Courier New&amp;quot;, monospace; font-size: 14px; line-height: 19px;&quot;&gt;&lt;span style=&quot;color: #4ec9b0;&quot;&gt;JWTClaims&lt;/span&gt;&lt;/div&gt;" style="swimlane;fontStyle=0;childLayout=stackLayout;horizontal=1;startSize=26;fillColor=none;horizontalStack=0;resizeParent=1;resizeParentMax=0;resizeLast=0;collapsible=1;marginBottom=0;whiteSpace=wrap;html=1;labelBackgroundColor=none;" parent="4" vertex="1">
                    <mxGeometry x="2566" y="441" width="329" height="89" as="geometry"/>
                </mxCell>
                <mxCell id="KicttZeMoANfHWGI0RuL-106" value="+&amp;nbsp;&lt;span style=&quot;font-family: Consolas, &amp;quot;Courier New&amp;quot;, monospace; font-size: 11px; color: rgb(156, 220, 254);&quot;&gt;claims&lt;/span&gt;&lt;span style=&quot;font-family: Consolas, &amp;quot;Courier New&amp;quot;, monospace; font-size: 11px; color: rgb(212, 212, 212);&quot;&gt;:&lt;/span&gt;&lt;span style=&quot;color: rgb(204, 204, 204); font-family: Consolas, &amp;quot;Courier New&amp;quot;, monospace; font-size: 11px;&quot;&gt; &lt;/span&gt;&lt;span style=&quot;font-family: Consolas, &amp;quot;Courier New&amp;quot;, monospace; font-size: 11px; color: rgb(78, 201, 176);&quot;&gt;HashMap&lt;/span&gt;&lt;span style=&quot;color: rgb(204, 204, 204); font-family: Consolas, &amp;quot;Courier New&amp;quot;, monospace; font-size: 11px;&quot;&gt;&amp;lt;&lt;/span&gt;&lt;span style=&quot;font-family: Consolas, &amp;quot;Courier New&amp;quot;, monospace; font-size: 11px; color: rgb(78, 201, 176);&quot;&gt;String&lt;/span&gt;&lt;span style=&quot;color: rgb(204, 204, 204); font-family: Consolas, &amp;quot;Courier New&amp;quot;, monospace; font-size: 11px;&quot;&gt;, &lt;/span&gt;&lt;span style=&quot;font-family: Consolas, &amp;quot;Courier New&amp;quot;, monospace; font-size: 11px; color: rgb(78, 201, 176);&quot;&gt;Value&lt;/span&gt;&lt;span style=&quot;color: rgb(204, 204, 204); font-family: Consolas, &amp;quot;Courier New&amp;quot;, monospace; font-size: 11px;&quot;&gt;&amp;gt;&lt;/span&gt;" style="text;strokeColor=none;fillColor=none;align=left;verticalAlign=top;spacingLeft=4;spacingRight=4;overflow=hidden;rotatable=0;points=[[0,0.5],[1,0.5]];portConstraint=eastwest;whiteSpace=wrap;html=1;fontSize=11;labelBackgroundColor=none;" parent="KicttZeMoANfHWGI0RuL-105" vertex="1">
                    <mxGeometry y="26" width="329" height="26" as="geometry"/>
                </mxCell>
                <mxCell id="9" value="" style="line;strokeWidth=1;fillColor=none;align=left;verticalAlign=middle;spacingTop=-1;spacingLeft=3;spacingRight=3;rotatable=0;labelPosition=right;points=[];portConstraint=eastwest;strokeColor=inherit;" vertex="1" parent="KicttZeMoANfHWGI0RuL-105">
                    <mxGeometry y="52" width="329" height="8" as="geometry"/>
                </mxCell>
                <mxCell id="7" value="+&amp;nbsp;&lt;span style=&quot;font-family: Consolas, &amp;quot;Courier New&amp;quot;, monospace; font-size: 11px; color: rgb(220, 220, 170);&quot;&gt;get&lt;/span&gt;&lt;span style=&quot;color: rgb(204, 204, 204); font-family: Consolas, &amp;quot;Courier New&amp;quot;, monospace; font-size: 11px;&quot;&gt;&amp;lt;&lt;/span&gt;&lt;span style=&quot;font-family: Consolas, &amp;quot;Courier New&amp;quot;, monospace; font-size: 11px; color: rgb(78, 201, 176);&quot;&gt;T&lt;/span&gt;&lt;span style=&quot;color: rgb(204, 204, 204); font-family: Consolas, &amp;quot;Courier New&amp;quot;, monospace; font-size: 11px;&quot;&gt;&amp;gt;(&lt;/span&gt;&lt;span style=&quot;font-family: Consolas, &amp;quot;Courier New&amp;quot;, monospace; font-size: 11px; color: rgb(212, 212, 212);&quot;&gt;&amp;amp;&lt;/span&gt;&lt;span style=&quot;font-family: Consolas, &amp;quot;Courier New&amp;quot;, monospace; font-size: 11px; color: rgb(86, 156, 214);&quot;&gt;self&lt;/span&gt;&lt;span style=&quot;color: rgb(204, 204, 204); font-family: Consolas, &amp;quot;Courier New&amp;quot;, monospace; font-size: 11px;&quot;&gt;, &lt;/span&gt;&lt;span style=&quot;font-family: Consolas, &amp;quot;Courier New&amp;quot;, monospace; font-size: 11px; color: rgb(156, 220, 254);&quot;&gt;claim&lt;/span&gt;&lt;span style=&quot;font-family: Consolas, &amp;quot;Courier New&amp;quot;, monospace; font-size: 11px; color: rgb(212, 212, 212);&quot;&gt;:&lt;/span&gt;&lt;span style=&quot;color: rgb(204, 204, 204); font-family: Consolas, &amp;quot;Courier New&amp;quot;, monospace; font-size: 11px;&quot;&gt; &lt;/span&gt;&lt;span style=&quot;font-family: Consolas, &amp;quot;Courier New&amp;quot;, monospace; font-size: 11px; color: rgb(212, 212, 212);&quot;&gt;&amp;amp;&lt;/span&gt;&lt;span style=&quot;font-family: Consolas, &amp;quot;Courier New&amp;quot;, monospace; font-size: 11px; color: rgb(78, 201, 176);&quot;&gt;str&lt;/span&gt;&lt;span style=&quot;color: rgb(204, 204, 204); font-family: Consolas, &amp;quot;Courier New&amp;quot;, monospace; font-size: 11px;&quot;&gt;) &lt;/span&gt;&lt;span style=&quot;font-family: Consolas, &amp;quot;Courier New&amp;quot;, monospace; font-size: 11px; color: rgb(212, 212, 212);&quot;&gt;-&amp;gt;&lt;/span&gt;&lt;span style=&quot;color: rgb(204, 204, 204); font-family: Consolas, &amp;quot;Courier New&amp;quot;, monospace; font-size: 11px;&quot;&gt; &lt;/span&gt;&lt;span style=&quot;font-family: Consolas, &amp;quot;Courier New&amp;quot;, monospace; font-size: 11px; color: rgb(78, 201, 176);&quot;&gt;Result&lt;/span&gt;&lt;span style=&quot;color: rgb(204, 204, 204); font-family: Consolas, &amp;quot;Courier New&amp;quot;, monospace; font-size: 11px;&quot;&gt;&amp;lt;&lt;/span&gt;&lt;span style=&quot;font-family: Consolas, &amp;quot;Courier New&amp;quot;, monospace; font-size: 11px; color: rgb(78, 201, 176);&quot;&gt;T&lt;/span&gt;&lt;span style=&quot;color: rgb(204, 204, 204); font-family: Consolas, &amp;quot;Courier New&amp;quot;, monospace; font-size: 11px;&quot;&gt;, &lt;/span&gt;&lt;span style=&quot;font-family: Consolas, &amp;quot;Courier New&amp;quot;, monospace; font-size: 11px; color: rgb(78, 201, 176);&quot;&gt;HttpError&lt;/span&gt;&lt;span style=&quot;color: rgb(204, 204, 204); font-family: Consolas, &amp;quot;Courier New&amp;quot;, monospace; font-size: 11px;&quot;&gt;&amp;gt;&lt;/span&gt;" style="text;strokeColor=none;fillColor=none;align=left;verticalAlign=top;spacingLeft=4;spacingRight=4;overflow=hidden;rotatable=0;points=[[0,0.5],[1,0.5]];portConstraint=eastwest;whiteSpace=wrap;html=1;fontSize=11;labelBackgroundColor=none;" vertex="1" parent="KicttZeMoANfHWGI0RuL-105">
                    <mxGeometry y="60" width="329" height="29" as="geometry"/>
                </mxCell>
                <mxCell id="KicttZeMoANfHWGI0RuL-123" value="" style="endArrow=block;dashed=1;endFill=0;endSize=12;html=1;rounded=0;" parent="1" source="KicttZeMoANfHWGI0RuL-82" target="KicttZeMoANfHWGI0RuL-89" edge="1">
                    <mxGeometry width="160" relative="1" as="geometry">
                        <mxPoint x="1400" y="249" as="sourcePoint"/>
                        <mxPoint x="1230" y="237" as="targetPoint"/>
                    </mxGeometry>
                </mxCell>
                <mxCell id="KicttZeMoANfHWGI0RuL-112" value="Use" style="endArrow=open;endSize=12;dashed=1;html=1;rounded=0;" parent="1" source="KicttZeMoANfHWGI0RuL-89" target="KicttZeMoANfHWGI0RuL-93" edge="1">
                    <mxGeometry width="160" relative="1" as="geometry">
                        <mxPoint x="1596" y="513" as="sourcePoint"/>
                        <mxPoint x="1706" y="503" as="targetPoint"/>
                    </mxGeometry>
                </mxCell>
                <mxCell id="KicttZeMoANfHWGI0RuL-80" value="Okta" style="swimlane;horizontal=0;whiteSpace=wrap;html=1;" parent="1" vertex="1">
                    <mxGeometry x="1387" y="705" width="886" height="396" as="geometry"/>
                </mxCell>
                <mxCell id="KicttZeMoANfHWGI0RuL-2" value="&lt;div style=&quot;color: rgb(204, 204, 204); font-family: Consolas, &amp;quot;Courier New&amp;quot;, monospace; font-size: 14px; line-height: 19px;&quot;&gt;&lt;span style=&quot;color: #4ec9b0;&quot;&gt;OktaResponse&lt;/span&gt;&lt;/div&gt;" style="swimlane;fontStyle=0;childLayout=stackLayout;horizontal=1;startSize=26;fillColor=none;horizontalStack=0;resizeParent=1;resizeParentMax=0;resizeLast=0;collapsible=1;marginBottom=0;whiteSpace=wrap;html=1;labelBackgroundColor=none;" parent="KicttZeMoANfHWGI0RuL-80" vertex="1">
                    <mxGeometry x="696" y="68" width="140" height="52" as="geometry"/>
                </mxCell>
                <mxCell id="KicttZeMoANfHWGI0RuL-3" value="+&amp;nbsp;&lt;span style=&quot;font-family: Consolas, &amp;quot;Courier New&amp;quot;, monospace; font-size: 11px; color: rgb(156, 220, 254);&quot;&gt;keys&lt;/span&gt;&lt;span style=&quot;background-color: rgb(31, 31, 31); color: rgb(204, 204, 204); font-family: Consolas, &amp;quot;Courier New&amp;quot;, monospace; font-size: 11px;&quot;&gt; &lt;/span&gt;&lt;span style=&quot;font-family: Consolas, &amp;quot;Courier New&amp;quot;, monospace; font-size: 11px; color: rgb(212, 212, 212);&quot;&gt;:&lt;/span&gt;&lt;span style=&quot;background-color: rgb(31, 31, 31); color: rgb(204, 204, 204); font-family: Consolas, &amp;quot;Courier New&amp;quot;, monospace; font-size: 11px;&quot;&gt; &lt;/span&gt;&lt;span style=&quot;font-family: Consolas, &amp;quot;Courier New&amp;quot;, monospace; font-size: 11px; color: rgb(78, 201, 176);&quot;&gt;Vec&lt;/span&gt;&lt;span style=&quot;background-color: rgb(31, 31, 31); color: rgb(204, 204, 204); font-family: Consolas, &amp;quot;Courier New&amp;quot;, monospace; font-size: 11px;&quot;&gt;&amp;lt;&lt;/span&gt;&lt;span style=&quot;font-family: Consolas, &amp;quot;Courier New&amp;quot;, monospace; font-size: 11px; color: rgb(78, 201, 176);&quot;&gt;OktaJWK&lt;/span&gt;&lt;span style=&quot;background-color: rgb(31, 31, 31); color: rgb(204, 204, 204); font-family: Consolas, &amp;quot;Courier New&amp;quot;, monospace; font-size: 11px;&quot;&gt;&amp;gt;&lt;/span&gt;" style="text;strokeColor=none;fillColor=none;align=left;verticalAlign=top;spacingLeft=4;spacingRight=4;overflow=hidden;rotatable=0;points=[[0,0.5],[1,0.5]];portConstraint=eastwest;whiteSpace=wrap;html=1;fontSize=11;" parent="KicttZeMoANfHWGI0RuL-2" vertex="1">
                    <mxGeometry y="26" width="140" height="26" as="geometry"/>
                </mxCell>
                <mxCell id="KicttZeMoANfHWGI0RuL-18" value="&lt;div style=&quot;color: rgb(204, 204, 204); font-family: Consolas, &amp;quot;Courier New&amp;quot;, monospace; font-size: 14px; line-height: 19px;&quot;&gt;&lt;span style=&quot;color: #4ec9b0;&quot;&gt;OktaJWK&lt;/span&gt;&lt;/div&gt;" style="swimlane;fontStyle=0;childLayout=stackLayout;horizontal=1;startSize=26;fillColor=none;horizontalStack=0;resizeParent=1;resizeParentMax=0;resizeLast=0;collapsible=1;marginBottom=0;whiteSpace=wrap;html=1;labelBackgroundColor=none;" parent="KicttZeMoANfHWGI0RuL-80" vertex="1">
                    <mxGeometry x="712.75" y="171" width="106.5" height="182" as="geometry"/>
                </mxCell>
                <mxCell id="KicttZeMoANfHWGI0RuL-19" value="+&amp;nbsp;&lt;span style=&quot;font-family: Consolas, &amp;quot;Courier New&amp;quot;, monospace; font-size: 11px; color: rgb(156, 220, 254);&quot;&gt;kty&lt;/span&gt;&lt;span style=&quot;font-family: Consolas, &amp;quot;Courier New&amp;quot;, monospace; font-size: 11px; color: rgb(212, 212, 212);&quot;&gt;:&lt;/span&gt;&lt;span style=&quot;color: rgb(204, 204, 204); font-family: Consolas, &amp;quot;Courier New&amp;quot;, monospace; font-size: 11px;&quot;&gt; &lt;/span&gt;&lt;span style=&quot;font-family: Consolas, &amp;quot;Courier New&amp;quot;, monospace; font-size: 11px; color: rgb(78, 201, 176);&quot;&gt;String&lt;/span&gt;" style="text;strokeColor=none;fillColor=none;align=left;verticalAlign=top;spacingLeft=4;spacingRight=4;overflow=hidden;rotatable=0;points=[[0,0.5],[1,0.5]];portConstraint=eastwest;whiteSpace=wrap;html=1;fontSize=11;labelBackgroundColor=none;" parent="KicttZeMoANfHWGI0RuL-18" vertex="1">
                    <mxGeometry y="26" width="106.5" height="26" as="geometry"/>
                </mxCell>
                <mxCell id="KicttZeMoANfHWGI0RuL-20" value="+&amp;nbsp;&lt;span style=&quot;font-family: Consolas, &amp;quot;Courier New&amp;quot;, monospace; font-size: 11px; color: rgb(156, 220, 254);&quot;&gt;alg&lt;/span&gt;&lt;span style=&quot;color: rgb(204, 204, 204); font-family: Consolas, &amp;quot;Courier New&amp;quot;, monospace; font-size: 11px;&quot;&gt; &lt;/span&gt;&lt;span style=&quot;font-family: Consolas, &amp;quot;Courier New&amp;quot;, monospace; font-size: 11px; color: rgb(212, 212, 212);&quot;&gt;:&lt;/span&gt;&lt;span style=&quot;color: rgb(204, 204, 204); font-family: Consolas, &amp;quot;Courier New&amp;quot;, monospace; font-size: 11px;&quot;&gt; &lt;/span&gt;&lt;span style=&quot;font-family: Consolas, &amp;quot;Courier New&amp;quot;, monospace; font-size: 11px; color: rgb(78, 201, 176);&quot;&gt;String&lt;/span&gt;" style="text;strokeColor=none;fillColor=none;align=left;verticalAlign=top;spacingLeft=4;spacingRight=4;overflow=hidden;rotatable=0;points=[[0,0.5],[1,0.5]];portConstraint=eastwest;whiteSpace=wrap;html=1;fontSize=11;labelBackgroundColor=none;" parent="KicttZeMoANfHWGI0RuL-18" vertex="1">
                    <mxGeometry y="52" width="106.5" height="26" as="geometry"/>
                </mxCell>
                <mxCell id="KicttZeMoANfHWGI0RuL-21" value="+&amp;nbsp;&lt;span style=&quot;font-family: Consolas, &amp;quot;Courier New&amp;quot;, monospace; font-size: 11px; color: rgb(156, 220, 254);&quot;&gt;kid&lt;/span&gt;&lt;span style=&quot;color: rgb(204, 204, 204); font-family: Consolas, &amp;quot;Courier New&amp;quot;, monospace; font-size: 11px;&quot;&gt; &lt;/span&gt;&lt;span style=&quot;font-family: Consolas, &amp;quot;Courier New&amp;quot;, monospace; font-size: 11px; color: rgb(212, 212, 212);&quot;&gt;:&lt;/span&gt;&lt;span style=&quot;color: rgb(204, 204, 204); font-family: Consolas, &amp;quot;Courier New&amp;quot;, monospace; font-size: 11px;&quot;&gt; &lt;/span&gt;&lt;span style=&quot;font-family: Consolas, &amp;quot;Courier New&amp;quot;, monospace; font-size: 11px; color: rgb(78, 201, 176);&quot;&gt;String&lt;/span&gt;" style="text;strokeColor=none;fillColor=none;align=left;verticalAlign=top;spacingLeft=4;spacingRight=4;overflow=hidden;rotatable=0;points=[[0,0.5],[1,0.5]];portConstraint=eastwest;whiteSpace=wrap;html=1;fontSize=11;labelBackgroundColor=none;" parent="KicttZeMoANfHWGI0RuL-18" vertex="1">
                    <mxGeometry y="78" width="106.5" height="26" as="geometry"/>
                </mxCell>
                <mxCell id="28" value="+&amp;nbsp;&lt;span style=&quot;font-family: Consolas, &amp;quot;Courier New&amp;quot;, monospace; font-size: 11px; color: rgb(156, 220, 254);&quot;&gt;_use&lt;/span&gt;&lt;span style=&quot;color: rgb(204, 204, 204); font-family: Consolas, &amp;quot;Courier New&amp;quot;, monospace; font-size: 11px;&quot;&gt; &lt;/span&gt;&lt;span style=&quot;font-family: Consolas, &amp;quot;Courier New&amp;quot;, monospace; font-size: 11px; color: rgb(212, 212, 212);&quot;&gt;:&lt;/span&gt;&lt;span style=&quot;color: rgb(204, 204, 204); font-family: Consolas, &amp;quot;Courier New&amp;quot;, monospace; font-size: 11px;&quot;&gt; &lt;/span&gt;&lt;span style=&quot;font-family: Consolas, &amp;quot;Courier New&amp;quot;, monospace; font-size: 11px; color: rgb(78, 201, 176);&quot;&gt;String&lt;/span&gt;" style="text;strokeColor=none;fillColor=none;align=left;verticalAlign=top;spacingLeft=4;spacingRight=4;overflow=hidden;rotatable=0;points=[[0,0.5],[1,0.5]];portConstraint=eastwest;whiteSpace=wrap;html=1;fontSize=11;labelBackgroundColor=none;" vertex="1" parent="KicttZeMoANfHWGI0RuL-18">
                    <mxGeometry y="104" width="106.5" height="26" as="geometry"/>
                </mxCell>
                <mxCell id="29" value="+&amp;nbsp;&lt;span style=&quot;font-family: Consolas, &amp;quot;Courier New&amp;quot;, monospace; font-size: 11px; color: rgb(156, 220, 254);&quot;&gt;e&lt;/span&gt;&lt;span style=&quot;color: rgb(204, 204, 204); font-family: Consolas, &amp;quot;Courier New&amp;quot;, monospace; font-size: 11px;&quot;&gt; &lt;/span&gt;&lt;span style=&quot;font-family: Consolas, &amp;quot;Courier New&amp;quot;, monospace; font-size: 11px; color: rgb(212, 212, 212);&quot;&gt;:&lt;/span&gt;&lt;span style=&quot;color: rgb(204, 204, 204); font-family: Consolas, &amp;quot;Courier New&amp;quot;, monospace; font-size: 11px;&quot;&gt; &lt;/span&gt;&lt;span style=&quot;font-family: Consolas, &amp;quot;Courier New&amp;quot;, monospace; font-size: 11px; color: rgb(78, 201, 176);&quot;&gt;String&lt;/span&gt;" style="text;strokeColor=none;fillColor=none;align=left;verticalAlign=top;spacingLeft=4;spacingRight=4;overflow=hidden;rotatable=0;points=[[0,0.5],[1,0.5]];portConstraint=eastwest;whiteSpace=wrap;html=1;fontSize=11;labelBackgroundColor=none;" vertex="1" parent="KicttZeMoANfHWGI0RuL-18">
                    <mxGeometry y="130" width="106.5" height="26" as="geometry"/>
                </mxCell>
                <mxCell id="30" value="+&amp;nbsp;&lt;span style=&quot;font-family: Consolas, &amp;quot;Courier New&amp;quot;, monospace; font-size: 11px; color: rgb(156, 220, 254);&quot;&gt;n&lt;/span&gt;&lt;span style=&quot;color: rgb(204, 204, 204); font-family: Consolas, &amp;quot;Courier New&amp;quot;, monospace; font-size: 11px;&quot;&gt; &lt;/span&gt;&lt;span style=&quot;font-family: Consolas, &amp;quot;Courier New&amp;quot;, monospace; font-size: 11px; color: rgb(212, 212, 212);&quot;&gt;:&lt;/span&gt;&lt;span style=&quot;color: rgb(204, 204, 204); font-family: Consolas, &amp;quot;Courier New&amp;quot;, monospace; font-size: 11px;&quot;&gt; &lt;/span&gt;&lt;span style=&quot;font-family: Consolas, &amp;quot;Courier New&amp;quot;, monospace; font-size: 11px; color: rgb(78, 201, 176);&quot;&gt;String&lt;/span&gt;" style="text;strokeColor=none;fillColor=none;align=left;verticalAlign=top;spacingLeft=4;spacingRight=4;overflow=hidden;rotatable=0;points=[[0,0.5],[1,0.5]];portConstraint=eastwest;whiteSpace=wrap;html=1;fontSize=11;labelBackgroundColor=none;" vertex="1" parent="KicttZeMoANfHWGI0RuL-18">
                    <mxGeometry y="156" width="106.5" height="26" as="geometry"/>
                </mxCell>
                <mxCell id="KicttZeMoANfHWGI0RuL-27" value="Use" style="endArrow=open;endSize=12;dashed=1;html=1;rounded=0;" parent="KicttZeMoANfHWGI0RuL-80" source="KicttZeMoANfHWGI0RuL-2" target="KicttZeMoANfHWGI0RuL-18" edge="1">
                    <mxGeometry width="160" relative="1" as="geometry">
                        <mxPoint x="-11" y="-69" as="sourcePoint"/>
                        <mxPoint x="-131" y="-69" as="targetPoint"/>
                    </mxGeometry>
                </mxCell>
                <mxCell id="KicttZeMoANfHWGI0RuL-82" value="OktaValidatorCapability" style="swimlane;fontStyle=0;childLayout=stackLayout;horizontal=1;startSize=26;fillColor=#d80073;horizontalStack=0;resizeParent=1;resizeParentMax=0;resizeLast=0;collapsible=1;marginBottom=0;whiteSpace=wrap;html=1;fontColor=#ffffff;strokeColor=#A50040;" parent="KicttZeMoANfHWGI0RuL-80" vertex="1">
                    <mxGeometry x="42" y="35" width="500" height="104" as="geometry"/>
                </mxCell>
                <mxCell id="31" value="+&amp;nbsp;&lt;span style=&quot;color: rgb(220, 220, 170); background-color: rgb(31, 31, 31); font-family: Consolas, &amp;quot;Courier New&amp;quot;, monospace;&quot;&gt;get_okta_validator_config&lt;/span&gt;&lt;span style=&quot;background-color: rgb(31, 31, 31); color: rgb(204, 204, 204); font-family: Consolas, &amp;quot;Courier New&amp;quot;, monospace;&quot;&gt;(&lt;/span&gt;&lt;span style=&quot;background-color: initial; font-family: Consolas, &amp;quot;Courier New&amp;quot;, monospace; color: rgb(212, 212, 212);&quot;&gt;&amp;amp;&lt;/span&gt;&lt;span style=&quot;background-color: initial; font-family: Consolas, &amp;quot;Courier New&amp;quot;, monospace; color: rgb(86, 156, 214);&quot;&gt;self&lt;/span&gt;&lt;span style=&quot;background-color: rgb(31, 31, 31); color: rgb(204, 204, 204); font-family: Consolas, &amp;quot;Courier New&amp;quot;, monospace;&quot;&gt;) &lt;/span&gt;&lt;span style=&quot;background-color: initial; font-family: Consolas, &amp;quot;Courier New&amp;quot;, monospace; color: rgb(212, 212, 212);&quot;&gt;-&amp;gt;&lt;/span&gt;&lt;span style=&quot;background-color: rgb(31, 31, 31); color: rgb(204, 204, 204); font-family: Consolas, &amp;quot;Courier New&amp;quot;, monospace;&quot;&gt; &lt;/span&gt;&lt;span style=&quot;background-color: initial; font-family: Consolas, &amp;quot;Courier New&amp;quot;, monospace; color: rgb(212, 212, 212);&quot;&gt;&amp;amp;&lt;/span&gt;&lt;span style=&quot;background-color: initial; font-family: Consolas, &amp;quot;Courier New&amp;quot;, monospace; color: rgb(78, 201, 176);&quot;&gt;OktaValidatorConfig&lt;/span&gt;" style="text;strokeColor=none;fillColor=none;align=left;verticalAlign=top;spacingLeft=4;spacingRight=4;overflow=hidden;rotatable=0;points=[[0,0.5],[1,0.5]];portConstraint=eastwest;whiteSpace=wrap;html=1;fontSize=11;" vertex="1" parent="KicttZeMoANfHWGI0RuL-82">
                    <mxGeometry y="26" width="500" height="26" as="geometry"/>
                </mxCell>
                <mxCell id="KicttZeMoANfHWGI0RuL-83" value="+&amp;nbsp;&lt;span style=&quot;font-family: Consolas, &amp;quot;Courier New&amp;quot;, monospace; font-size: 11px; color: rgb(220, 220, 170); text-decoration-line: underline;&quot;&gt;request_okta_validation&lt;/span&gt;&lt;span style=&quot;color: rgb(204, 204, 204); font-family: Consolas, &amp;quot;Courier New&amp;quot;, monospace; font-size: 11px;&quot;&gt;(&lt;/span&gt;&lt;span style=&quot;font-family: Consolas, &amp;quot;Courier New&amp;quot;, monospace; font-size: 11px; color: rgb(212, 212, 212);&quot;&gt;&amp;amp;&lt;/span&gt;&lt;span style=&quot;font-family: Consolas, &amp;quot;Courier New&amp;quot;, monospace; font-size: 11px; color: rgb(86, 156, 214);&quot;&gt;mut&lt;/span&gt;&lt;span style=&quot;color: rgb(204, 204, 204); font-family: Consolas, &amp;quot;Courier New&amp;quot;, monospace; font-size: 11px;&quot;&gt; &lt;/span&gt;&lt;span style=&quot;font-family: Consolas, &amp;quot;Courier New&amp;quot;, monospace; font-size: 11px; color: rgb(86, 156, 214); text-decoration-line: underline;&quot;&gt;self&lt;/span&gt;&lt;span style=&quot;color: rgb(204, 204, 204); font-family: Consolas, &amp;quot;Courier New&amp;quot;, monospace; font-size: 11px;&quot;&gt;) &lt;/span&gt;&lt;span style=&quot;font-family: Consolas, &amp;quot;Courier New&amp;quot;, monospace; font-size: 11px; color: rgb(212, 212, 212);&quot;&gt;-&amp;gt;&lt;/span&gt;&lt;span style=&quot;color: rgb(204, 204, 204); font-family: Consolas, &amp;quot;Courier New&amp;quot;, monospace; font-size: 11px;&quot;&gt; &lt;/span&gt;&lt;span style=&quot;font-family: Consolas, &amp;quot;Courier New&amp;quot;, monospace; font-size: 11px; color: rgb(78, 201, 176);&quot;&gt;Result&lt;/span&gt;&lt;span style=&quot;color: rgb(204, 204, 204); font-family: Consolas, &amp;quot;Courier New&amp;quot;, monospace; font-size: 11px;&quot;&gt;&amp;lt;(), &lt;/span&gt;&lt;span style=&quot;font-family: Consolas, &amp;quot;Courier New&amp;quot;, monospace; font-size: 11px; color: rgb(78, 201, 176);&quot;&gt;HttpError&lt;/span&gt;&lt;span style=&quot;color: rgb(204, 204, 204); font-family: Consolas, &amp;quot;Courier New&amp;quot;, monospace; font-size: 11px;&quot;&gt;&amp;gt;&lt;/span&gt;" style="text;strokeColor=none;fillColor=none;align=left;verticalAlign=top;spacingLeft=4;spacingRight=4;overflow=hidden;rotatable=0;points=[[0,0.5],[1,0.5]];portConstraint=eastwest;whiteSpace=wrap;html=1;fontSize=11;labelBackgroundColor=none;" parent="KicttZeMoANfHWGI0RuL-82" vertex="1">
                    <mxGeometry y="52" width="500" height="26" as="geometry"/>
                </mxCell>
                <mxCell id="KicttZeMoANfHWGI0RuL-84" value="+&amp;nbsp;&lt;span style=&quot;font-family: Consolas, &amp;quot;Courier New&amp;quot;, monospace; font-size: 11px; color: rgb(220, 220, 170); text-decoration-line: underline;&quot;&gt;response_okta_validation&lt;/span&gt;&lt;span style=&quot;color: rgb(204, 204, 204); font-family: Consolas, &amp;quot;Courier New&amp;quot;, monospace; font-size: 11px;&quot;&gt;(&lt;/span&gt;&lt;span style=&quot;font-family: Consolas, &amp;quot;Courier New&amp;quot;, monospace; font-size: 11px; color: rgb(212, 212, 212);&quot;&gt;&amp;amp;&lt;/span&gt;&lt;span style=&quot;font-family: Consolas, &amp;quot;Courier New&amp;quot;, monospace; font-size: 11px; color: rgb(86, 156, 214);&quot;&gt;mut&lt;/span&gt;&lt;span style=&quot;color: rgb(204, 204, 204); font-family: Consolas, &amp;quot;Courier New&amp;quot;, monospace; font-size: 11px;&quot;&gt; &lt;/span&gt;&lt;span style=&quot;font-family: Consolas, &amp;quot;Courier New&amp;quot;, monospace; font-size: 11px; color: rgb(86, 156, 214); text-decoration-line: underline;&quot;&gt;self&lt;/span&gt;&lt;span style=&quot;color: rgb(204, 204, 204); font-family: Consolas, &amp;quot;Courier New&amp;quot;, monospace; font-size: 11px;&quot;&gt;, &lt;/span&gt;&lt;span style=&quot;font-family: Consolas, &amp;quot;Courier New&amp;quot;, monospace; font-size: 11px; color: rgb(156, 220, 254);&quot;&gt;body_size&lt;/span&gt;&lt;span style=&quot;font-family: Consolas, &amp;quot;Courier New&amp;quot;, monospace; font-size: 11px; color: rgb(212, 212, 212);&quot;&gt;:&lt;/span&gt;&lt;span style=&quot;color: rgb(204, 204, 204); font-family: Consolas, &amp;quot;Courier New&amp;quot;, monospace; font-size: 11px;&quot;&gt; &lt;/span&gt;&lt;span style=&quot;font-family: Consolas, &amp;quot;Courier New&amp;quot;, monospace; font-size: 11px; color: rgb(78, 201, 176);&quot;&gt;usize&lt;/span&gt;&lt;span style=&quot;color: rgb(204, 204, 204); font-family: Consolas, &amp;quot;Courier New&amp;quot;, monospace; font-size: 11px;&quot;&gt;) &lt;/span&gt;&lt;span style=&quot;font-family: Consolas, &amp;quot;Courier New&amp;quot;, monospace; font-size: 11px; color: rgb(212, 212, 212);&quot;&gt;-&amp;gt;&lt;/span&gt;&lt;span style=&quot;color: rgb(204, 204, 204); font-family: Consolas, &amp;quot;Courier New&amp;quot;, monospace; font-size: 11px;&quot;&gt; &lt;/span&gt;&lt;span style=&quot;font-family: Consolas, &amp;quot;Courier New&amp;quot;, monospace; font-size: 11px; color: rgb(78, 201, 176);&quot;&gt;Result&lt;/span&gt;&lt;span style=&quot;color: rgb(204, 204, 204); font-family: Consolas, &amp;quot;Courier New&amp;quot;, monospace; font-size: 11px;&quot;&gt;&amp;lt;(), &lt;/span&gt;&lt;span style=&quot;font-family: Consolas, &amp;quot;Courier New&amp;quot;, monospace; font-size: 11px; color: rgb(78, 201, 176);&quot;&gt;HttpError&lt;/span&gt;&lt;span style=&quot;color: rgb(204, 204, 204); font-family: Consolas, &amp;quot;Courier New&amp;quot;, monospace; font-size: 11px;&quot;&gt;&amp;gt;&lt;/span&gt;" style="text;strokeColor=none;fillColor=none;align=left;verticalAlign=top;spacingLeft=4;spacingRight=4;overflow=hidden;rotatable=0;points=[[0,0.5],[1,0.5]];portConstraint=eastwest;whiteSpace=wrap;html=1;fontSize=11;labelBackgroundColor=none;" parent="KicttZeMoANfHWGI0RuL-82" vertex="1">
                    <mxGeometry y="78" width="500" height="26" as="geometry"/>
                </mxCell>
                <mxCell id="5" value="Use" style="endArrow=open;endSize=12;dashed=1;html=1;rounded=0;" parent="KicttZeMoANfHWGI0RuL-80" source="KicttZeMoANfHWGI0RuL-82" target="KicttZeMoANfHWGI0RuL-2" edge="1">
                    <mxGeometry width="160" relative="1" as="geometry">
                        <mxPoint x="543" y="85" as="sourcePoint"/>
                        <mxPoint x="543" y="150" as="targetPoint"/>
                    </mxGeometry>
                </mxCell>
                <mxCell id="KicttZeMoANfHWGI0RuL-6" value="&lt;div style=&quot;color: rgb(204, 204, 204); font-family: Consolas, &amp;quot;Courier New&amp;quot;, monospace; font-size: 14px; line-height: 19px;&quot;&gt;&lt;span style=&quot;color: #4ec9b0;&quot;&gt;OktaCacheIssuerData&lt;/span&gt;&lt;/div&gt;" style="swimlane;fontStyle=0;childLayout=stackLayout;horizontal=1;startSize=26;fillColor=none;horizontalStack=0;resizeParent=1;resizeParentMax=0;resizeLast=0;collapsible=1;marginBottom=0;whiteSpace=wrap;html=1;labelBackgroundColor=none;" parent="KicttZeMoANfHWGI0RuL-80" vertex="1">
                    <mxGeometry x="348" y="181" width="303" height="52" as="geometry"/>
                </mxCell>
                <mxCell id="KicttZeMoANfHWGI0RuL-8" value="+&amp;nbsp;&lt;span style=&quot;font-family: Consolas, &amp;quot;Courier New&amp;quot;, monospace; font-size: 11px; color: rgb(156, 220, 254);&quot;&gt;keys&lt;/span&gt;&lt;span style=&quot;color: rgb(204, 204, 204); font-family: Consolas, &amp;quot;Courier New&amp;quot;, monospace; font-size: 11px;&quot;&gt; &lt;/span&gt;&lt;span style=&quot;font-family: Consolas, &amp;quot;Courier New&amp;quot;, monospace; font-size: 11px; color: rgb(212, 212, 212);&quot;&gt;:&lt;/span&gt;&lt;span style=&quot;color: rgb(204, 204, 204); font-family: Consolas, &amp;quot;Courier New&amp;quot;, monospace; font-size: 11px;&quot;&gt; &lt;/span&gt;&lt;span style=&quot;font-family: Consolas, &amp;quot;Courier New&amp;quot;, monospace; font-size: 11px; color: rgb(78, 201, 176);&quot;&gt;HashMap&lt;/span&gt;&lt;span style=&quot;color: rgb(204, 204, 204); font-family: Consolas, &amp;quot;Courier New&amp;quot;, monospace; font-size: 11px;&quot;&gt;&amp;lt;&lt;/span&gt;&lt;span style=&quot;font-family: Consolas, &amp;quot;Courier New&amp;quot;, monospace; font-size: 11px; color: rgb(78, 201, 176);&quot;&gt;String&lt;/span&gt;&lt;span style=&quot;color: rgb(204, 204, 204); font-family: Consolas, &amp;quot;Courier New&amp;quot;, monospace; font-size: 11px;&quot;&gt;, &lt;/span&gt;&lt;span style=&quot;font-family: Consolas, &amp;quot;Courier New&amp;quot;, monospace; font-size: 11px; color: rgb(78, 201, 176);&quot;&gt;OktaCacheIssuerKeyData&lt;/span&gt;&lt;span style=&quot;color: rgb(204, 204, 204); font-family: Consolas, &amp;quot;Courier New&amp;quot;, monospace; font-size: 11px;&quot;&gt;&amp;gt;&lt;/span&gt;" style="text;strokeColor=none;fillColor=none;align=left;verticalAlign=top;spacingLeft=4;spacingRight=4;overflow=hidden;rotatable=0;points=[[0,0.5],[1,0.5]];portConstraint=eastwest;whiteSpace=wrap;html=1;fontSize=11;labelBackgroundColor=none;" parent="KicttZeMoANfHWGI0RuL-6" vertex="1">
                    <mxGeometry y="26" width="303" height="26" as="geometry"/>
                </mxCell>
                <mxCell id="6" value="Use" style="endArrow=open;endSize=12;dashed=1;html=1;rounded=0;" parent="KicttZeMoANfHWGI0RuL-80" source="KicttZeMoANfHWGI0RuL-82" target="KicttZeMoANfHWGI0RuL-6" edge="1">
                    <mxGeometry width="160" relative="1" as="geometry">
                        <mxPoint x="353" y="202.00000000000023" as="sourcePoint"/>
                        <mxPoint x="498" y="202.00000000000023" as="targetPoint"/>
                    </mxGeometry>
                </mxCell>
                <mxCell id="15" value="&lt;div style=&quot;color: rgb(204, 204, 204); font-family: Consolas, &amp;quot;Courier New&amp;quot;, monospace; font-size: 14px; line-height: 19px;&quot;&gt;&lt;span style=&quot;color: #4ec9b0;&quot;&gt;OktaValidatorConfig&lt;/span&gt;&lt;/div&gt;" style="swimlane;fontStyle=0;childLayout=stackLayout;horizontal=1;startSize=26;fillColor=none;horizontalStack=0;resizeParent=1;resizeParentMax=0;resizeLast=0;collapsible=1;marginBottom=0;whiteSpace=wrap;html=1;labelBackgroundColor=none;" vertex="1" parent="KicttZeMoANfHWGI0RuL-80">
                    <mxGeometry x="42" y="181" width="233" height="104" as="geometry"/>
                </mxCell>
                <mxCell id="16" value="+&amp;nbsp;&lt;span style=&quot;font-family: Consolas, &amp;quot;Courier New&amp;quot;, monospace; font-size: 11px; color: rgb(156, 220, 254);&quot;&gt;timeout&lt;/span&gt;&lt;span style=&quot;font-family: Consolas, &amp;quot;Courier New&amp;quot;, monospace; font-size: 11px; color: rgb(212, 212, 212);&quot;&gt;:&lt;/span&gt;&lt;span style=&quot;color: rgb(204, 204, 204); font-family: Consolas, &amp;quot;Courier New&amp;quot;, monospace; font-size: 11px;&quot;&gt; &lt;/span&gt;&lt;span style=&quot;font-family: Consolas, &amp;quot;Courier New&amp;quot;, monospace; font-size: 11px; color: rgb(78, 201, 176);&quot;&gt;u64&lt;/span&gt;" style="text;strokeColor=none;fillColor=none;align=left;verticalAlign=top;spacingLeft=4;spacingRight=4;overflow=hidden;rotatable=0;points=[[0,0.5],[1,0.5]];portConstraint=eastwest;whiteSpace=wrap;html=1;fontSize=11;labelBackgroundColor=none;" vertex="1" parent="15">
                    <mxGeometry y="26" width="233" height="26" as="geometry"/>
                </mxCell>
                <mxCell id="18" value="&lt;span style=&quot;font-family: Consolas, &amp;quot;Courier New&amp;quot;, monospace; color: rgb(156, 220, 254);&quot;&gt;+ upstream&lt;/span&gt;&lt;span style=&quot;color: rgb(204, 204, 204); font-family: Consolas, &amp;quot;Courier New&amp;quot;, monospace;&quot;&gt;&amp;nbsp;&lt;/span&gt;&lt;span style=&quot;font-family: Consolas, &amp;quot;Courier New&amp;quot;, monospace; color: rgb(212, 212, 212);&quot;&gt;:&lt;/span&gt;&lt;span style=&quot;color: rgb(204, 204, 204); font-family: Consolas, &amp;quot;Courier New&amp;quot;, monospace;&quot;&gt;&amp;nbsp;&lt;/span&gt;&lt;span style=&quot;font-family: Consolas, &amp;quot;Courier New&amp;quot;, monospace; color: rgb(78, 201, 176);&quot;&gt;HashMap&lt;/span&gt;&lt;span style=&quot;color: rgb(204, 204, 204); font-family: Consolas, &amp;quot;Courier New&amp;quot;, monospace;&quot;&gt;&amp;lt;&lt;/span&gt;&lt;span style=&quot;font-family: Consolas, &amp;quot;Courier New&amp;quot;, monospace; color: rgb(78, 201, 176);&quot;&gt;String&lt;/span&gt;&lt;span style=&quot;color: rgb(204, 204, 204); font-family: Consolas, &amp;quot;Courier New&amp;quot;, monospace;&quot;&gt;,&amp;nbsp;&lt;/span&gt;&lt;span style=&quot;font-family: Consolas, &amp;quot;Courier New&amp;quot;, monospace; color: rgb(78, 201, 176);&quot;&gt;String&lt;/span&gt;&lt;span style=&quot;color: rgb(204, 204, 204); font-family: Consolas, &amp;quot;Courier New&amp;quot;, monospace;&quot;&gt;&amp;gt;&lt;/span&gt;" style="text;strokeColor=none;fillColor=none;align=left;verticalAlign=top;spacingLeft=4;spacingRight=4;overflow=hidden;rotatable=0;points=[[0,0.5],[1,0.5]];portConstraint=eastwest;whiteSpace=wrap;html=1;fontSize=11;labelBackgroundColor=none;" vertex="1" parent="15">
                    <mxGeometry y="52" width="233" height="26" as="geometry"/>
                </mxCell>
                <mxCell id="19" value="+&lt;span style=&quot;color: rgb(204, 204, 204); font-family: Consolas, &amp;quot;Courier New&amp;quot;, monospace; font-size: 11px;&quot;&gt;&amp;nbsp;&lt;/span&gt;&lt;span style=&quot;font-family: Consolas, &amp;quot;Courier New&amp;quot;, monospace; font-size: 11px; color: rgb(156, 220, 254);&quot;&gt;issuer_key_data_ttl&lt;/span&gt;&lt;span style=&quot;font-family: Consolas, &amp;quot;Courier New&amp;quot;, monospace; font-size: 11px; color: rgb(212, 212, 212);&quot;&gt;:&lt;/span&gt;&lt;span style=&quot;color: rgb(204, 204, 204); font-family: Consolas, &amp;quot;Courier New&amp;quot;, monospace; font-size: 11px;&quot;&gt; &lt;/span&gt;&lt;span style=&quot;font-family: Consolas, &amp;quot;Courier New&amp;quot;, monospace; font-size: 11px; color: rgb(78, 201, 176);&quot;&gt;i64&lt;/span&gt;" style="text;strokeColor=none;fillColor=none;align=left;verticalAlign=top;spacingLeft=4;spacingRight=4;overflow=hidden;rotatable=0;points=[[0,0.5],[1,0.5]];portConstraint=eastwest;whiteSpace=wrap;html=1;fontSize=11;labelBackgroundColor=none;" vertex="1" parent="15">
                    <mxGeometry y="78" width="233" height="26" as="geometry"/>
                </mxCell>
                <mxCell id="20" value="Use" style="endArrow=open;endSize=12;dashed=1;html=1;rounded=0;" edge="1" parent="KicttZeMoANfHWGI0RuL-80" source="KicttZeMoANfHWGI0RuL-82" target="15">
                    <mxGeometry width="160" relative="1" as="geometry">
                        <mxPoint x="311.9047619047619" y="123" as="sourcePoint"/>
                        <mxPoint x="404.0952380952381" y="171" as="targetPoint"/>
                    </mxGeometry>
                </mxCell>
                <mxCell id="23" value="&lt;div style=&quot;color: rgb(204, 204, 204); background-color: rgb(31, 31, 31); font-family: Consolas, &amp;quot;Courier New&amp;quot;, monospace; font-size: 14px; line-height: 19px;&quot;&gt;&lt;span style=&quot;color: #4ec9b0;&quot;&gt;OktaCacheIssuerKeyData&lt;/span&gt;&lt;/div&gt;" style="swimlane;fontStyle=0;childLayout=stackLayout;horizontal=1;startSize=26;fillColor=none;horizontalStack=0;resizeParent=1;resizeParentMax=0;resizeLast=0;collapsible=1;marginBottom=0;whiteSpace=wrap;html=1;" vertex="1" parent="KicttZeMoANfHWGI0RuL-80">
                    <mxGeometry x="402.5" y="267" width="194" height="104" as="geometry"/>
                </mxCell>
                <mxCell id="24" value="+&amp;nbsp;&lt;span style=&quot;font-family: Consolas, &amp;quot;Courier New&amp;quot;, monospace; font-size: 11px; color: rgb(156, 220, 254);&quot;&gt;n&lt;/span&gt;&lt;span style=&quot;color: rgb(204, 204, 204); font-family: Consolas, &amp;quot;Courier New&amp;quot;, monospace; font-size: 11px;&quot;&gt; &lt;/span&gt;&lt;span style=&quot;font-family: Consolas, &amp;quot;Courier New&amp;quot;, monospace; font-size: 11px; color: rgb(212, 212, 212);&quot;&gt;:&lt;/span&gt;&lt;span style=&quot;color: rgb(204, 204, 204); font-family: Consolas, &amp;quot;Courier New&amp;quot;, monospace; font-size: 11px;&quot;&gt; &lt;/span&gt;&lt;span style=&quot;font-family: Consolas, &amp;quot;Courier New&amp;quot;, monospace; font-size: 11px; color: rgb(78, 201, 176);&quot;&gt;String&lt;/span&gt;" style="text;strokeColor=none;fillColor=none;align=left;verticalAlign=top;spacingLeft=4;spacingRight=4;overflow=hidden;rotatable=0;points=[[0,0.5],[1,0.5]];portConstraint=eastwest;whiteSpace=wrap;html=1;fontSize=11;labelBackgroundColor=none;" vertex="1" parent="23">
                    <mxGeometry y="26" width="194" height="26" as="geometry"/>
                </mxCell>
                <mxCell id="25" value="+&amp;nbsp;&lt;span style=&quot;font-family: Consolas, &amp;quot;Courier New&amp;quot;, monospace; font-size: 11px; color: rgb(156, 220, 254);&quot;&gt;e&lt;/span&gt;&lt;span style=&quot;color: rgb(204, 204, 204); font-family: Consolas, &amp;quot;Courier New&amp;quot;, monospace; font-size: 11px;&quot;&gt; &lt;/span&gt;&lt;span style=&quot;font-family: Consolas, &amp;quot;Courier New&amp;quot;, monospace; font-size: 11px; color: rgb(212, 212, 212);&quot;&gt;:&lt;/span&gt;&lt;span style=&quot;color: rgb(204, 204, 204); font-family: Consolas, &amp;quot;Courier New&amp;quot;, monospace; font-size: 11px;&quot;&gt; &lt;/span&gt;&lt;span style=&quot;font-family: Consolas, &amp;quot;Courier New&amp;quot;, monospace; font-size: 11px; color: rgb(78, 201, 176);&quot;&gt;String&lt;/span&gt;" style="text;strokeColor=none;fillColor=none;align=left;verticalAlign=top;spacingLeft=4;spacingRight=4;overflow=hidden;rotatable=0;points=[[0,0.5],[1,0.5]];portConstraint=eastwest;whiteSpace=wrap;html=1;fontSize=11;labelBackgroundColor=none;" vertex="1" parent="23">
                    <mxGeometry y="52" width="194" height="26" as="geometry"/>
                </mxCell>
                <mxCell id="26" value="+&amp;nbsp;&lt;span style=&quot;font-family: Consolas, &amp;quot;Courier New&amp;quot;, monospace; font-size: 11px; color: rgb(156, 220, 254);&quot;&gt;exp&lt;/span&gt;&lt;span style=&quot;color: rgb(204, 204, 204); font-family: Consolas, &amp;quot;Courier New&amp;quot;, monospace; font-size: 11px;&quot;&gt; &lt;/span&gt;&lt;span style=&quot;font-family: Consolas, &amp;quot;Courier New&amp;quot;, monospace; font-size: 11px; color: rgb(212, 212, 212);&quot;&gt;:&lt;/span&gt;&lt;span style=&quot;color: rgb(204, 204, 204); font-family: Consolas, &amp;quot;Courier New&amp;quot;, monospace; font-size: 11px;&quot;&gt; &lt;/span&gt;&lt;span style=&quot;font-family: Consolas, &amp;quot;Courier New&amp;quot;, monospace; font-size: 11px; color: rgb(78, 201, 176);&quot;&gt;i64&lt;/span&gt;" style="text;strokeColor=none;fillColor=none;align=left;verticalAlign=top;spacingLeft=4;spacingRight=4;overflow=hidden;rotatable=0;points=[[0,0.5],[1,0.5]];portConstraint=eastwest;whiteSpace=wrap;html=1;fontSize=11;labelBackgroundColor=none;" vertex="1" parent="23">
                    <mxGeometry y="78" width="194" height="26" as="geometry"/>
                </mxCell>
                <mxCell id="27" value="Use" style="endArrow=open;endSize=12;dashed=1;html=1;rounded=0;" edge="1" parent="KicttZeMoANfHWGI0RuL-80" source="KicttZeMoANfHWGI0RuL-6" target="23">
                    <mxGeometry width="160" relative="1" as="geometry">
                        <mxPoint x="708" y="241.34637964774947" as="sourcePoint"/>
                        <mxPoint x="767" y="249.65949119373772" as="targetPoint"/>
                    </mxGeometry>
                </mxCell>
            </root>
        </mxGraphModel>
    </diagram>
</mxfile>